<?xml version="1.0" standalone="no"?>
<!DOCTYPE svg PUBLIC "-//W3C//DTD SVG 1.1//EN" "http://www.w3.org/Graphics/SVG/1.1/DTD/svg11.dtd" >
<svg xmlns="http://www.w3.org/2000/svg">
<metadata></metadata>
<defs>
<font id="toyota_displayregular" horiz-adv-x="1024" >
<font-face units-per-em="2048" ascent="1638" descent="-410" />
<missing-glyph horiz-adv-x="409" />
<glyph unicode="&#xfb01;" horiz-adv-x="1191" d="M51 874v152h146v135q0 74 26.5 136.5t80.5 108.5t133 71.5t184 25.5q117 0 203.5 -23.5t152.5 -49.5l-53 -138q-66 29 -144 46.5t-145 17.5q-129 0 -188.5 -53.5t-59.5 -155.5v-121h660v-1026h-191v874h-469v-874h-190v874h-146z" />
<glyph unicode="&#xfb02;" horiz-adv-x="1202" d="M51 874v152h146v135q0 74 27.5 136.5t80.5 108.5t134 71.5t190 25.5q123 0 225 -22.5t203 -63.5v-1417h-191v1317q-61 20 -111 29.5t-120 9.5q-129 0 -188.5 -53.5t-59.5 -155.5v-121h332v-152h-332v-874h-190v874h-146z" />
<glyph unicode="&#xfb03;" horiz-adv-x="1865" d="M51 874v152h146v135q0 74 20.5 136.5t65.5 108.5t115.5 71.5t170.5 25.5q57 0 110.5 -7t113.5 -23l-33 -144q-51 14 -92 20.5t-95 6.5q-59 0 -95 -16.5t-56.5 -44t-27.5 -66.5t-7 -82v-121h483v135q0 74 26 136.5t78 108.5t131 71.5t183 25.5q117 0 207 -23.5t156 -49.5 l-54 -138q-66 29 -143.5 46.5t-144.5 17.5q-129 0 -188.5 -53.5t-59.5 -155.5v-121h659v-1026h-190v874h-469v-874h-191v874h-483v-874h-190v874h-146z" />
<glyph unicode="&#xfb04;" horiz-adv-x="1863" d="M51 874v152h146v135q0 74 20.5 136.5t65.5 108.5t115.5 71.5t170.5 25.5q57 0 110.5 -7t113.5 -23l-33 -144q-51 14 -92 20.5t-95 6.5q-59 0 -95 -16.5t-56.5 -44t-27.5 -66.5t-7 -82v-121h471v135q0 74 27.5 136.5t81 108.5t134.5 71.5t189 25.5q123 0 225.5 -22.5 t202.5 -63.5v-1417h-190v1317q-61 20 -111.5 29.5t-120.5 9.5q-129 0 -188 -53.5t-59 -155.5v-121h331v-152h-331v-874h-191v874h-471v-874h-190v874h-146z" />
<glyph horiz-adv-x="2048" />
<glyph horiz-adv-x="2048" />
<glyph unicode="&#xd;" horiz-adv-x="972" />
<glyph unicode=" "  horiz-adv-x="409" />
<glyph unicode="&#x09;" horiz-adv-x="409" />
<glyph unicode="&#xa0;" horiz-adv-x="409" />
<glyph unicode="!" horiz-adv-x="577" d="M154 106q0 61 32.5 101.5t102.5 40.5t102.5 -40t32.5 -102q0 -61 -33 -101t-102 -40q-70 0 -103 39q-33 41 -32 102zM176 1477h230l-35 -1057h-160z" />
<glyph unicode="&#x22;" horiz-adv-x="712" d="M106 885v592h177v-592h-177zM430 885v592h177v-592h-177z" />
<glyph unicode="#" horiz-adv-x="1458" d="M72 408v153h266l76 365h-232v155h264l60 291h176l-59 -291h352l61 291h174l-59 -291h246v-155h-279l-76 -365h242v-153h-272l-68 -328h-174l66 328h-353l-65 -328h-178l67 328h-235zM516 561h352l76 365h-352z" />
<glyph unicode="$" horiz-adv-x="1300" d="M82 80l51 164q109 -45 222.5 -68.5t236.5 -23.5q199 0 293 70.5t94 187.5q0 72 -33 116.5t-86 72.5t-122.5 44t-145.5 33q-78 14 -160 37.5t-149.5 65.5t-110.5 110.5t-43 175.5q0 78 24.5 146.5t77 123t134 90t198.5 48.5v196h178v-190q125 -6 222.5 -30t183.5 -58 l-47 -154q-106 39 -202.5 61.5t-213.5 22.5q-176 0 -264 -64.5t-88 -175.5q0 -63 29.5 -103t78.5 -65.5t113.5 -41t134.5 -29.5q84 -18 172 -41t160 -68t118 -116.5t46 -188.5q0 -174 -113 -287.5t-330 -142.5v-211h-178v201q-178 4 -299 34.5t-182 57.5z" />
<glyph unicode="%" horiz-adv-x="2050" d="M96 1067q0 86 24.5 159.5t73 129t121 87.5t168.5 32q86 0 152.5 -31t112 -85t69 -129t23.5 -161t-24.5 -160.5t-72 -128t-117 -84t-159.5 -30.5q-98 0 -169 31.5t-116 84.5q-43 55 -64.5 128t-21.5 157zM272 1069q0 -119 50.5 -191.5t148.5 -72.5q92 0 143.5 66.5 t51.5 197.5t-51.5 198.5t-143.5 67.5q-98 0 -148.5 -72.5t-50.5 -193.5zM360 0l1133 1458h197l-1131 -1458h-199zM1210 385q0 84 25 157.5t73 129t120.5 87.5t168.5 32q86 0 153 -31t112 -85t68.5 -128t23.5 -160q0 -88 -24.5 -162.5t-72 -128t-117 -84t-159.5 -30.5 q-98 0 -168 31.5t-115 84.5q-45 55 -66.5 129t-21.5 158zM1384 387q0 -121 51.5 -193.5t149.5 -72.5q193 0 193 266q0 129 -49.5 196.5t-143.5 67.5q-98 0 -149.5 -73.5t-51.5 -190.5z" />
<glyph unicode="&#x26;" horiz-adv-x="1525" d="M113 365q0 76 26.5 144.5t74.5 130.5t115.5 122.5t149.5 122.5q-57 72 -78.5 137t-21.5 139q0 72 29.5 134.5t84 108.5t129 72.5t166.5 26.5q109 0 188 -25.5t150 -58.5l-63 -147q-66 35 -126 54.5t-138 19.5q-41 0 -80 -11.5t-70 -35t-50 -59.5t-19 -85q0 -66 26.5 -117 t77.5 -110l389 -443l242 308l139 -105l-262 -342l227 -256l-137 -123l-211 238q-111 -117 -230.5 -179.5t-269.5 -62.5q-129 0 -217 37t-142 95.5t-76.5 130t-22.5 139.5zM317 375q0 -43 13.5 -87t45.5 -79t82 -56.5t124 -21.5q98 0 186 51t184 158l-362 414 q-72 -53 -123 -98.5t-84 -88.5t-49.5 -90t-16.5 -102z" />
<glyph unicode="'" horiz-adv-x="389" d="M106 885v592h177v-592h-177z" />
<glyph unicode="(" horiz-adv-x="796" d="M98 590q0 84 39 166t84 153l373 600l151 -98l-346 -567q-37 -59 -69.5 -123t-32.5 -129q0 -68 32.5 -132.5t67.5 -121.5l348 -567l-151 -99l-373 598q-47 72 -85 154t-38 166z" />
<glyph unicode=")" horiz-adv-x="794" d="M49 -229l346 567q37 57 70 121.5t33 132.5q0 66 -33 129t-70 123l-346 567l152 98l372 -600q43 -72 82 -153.5t39 -165.5t-38 -166t-83 -154l-372 -598z" />
<glyph unicode="*" horiz-adv-x="1060" d="M102 1110l52 156l301 -111l-6 322h163l-4 -322l299 111l51 -156l-309 -94l205 -254l-133 -98l-191 264l-190 -264l-133 98l205 254z" />
<glyph unicode="+" horiz-adv-x="1372" d="M188 614v164h410v420h172v-420h412v-164h-412v-419h-172v419h-410z" />
<glyph unicode="," horiz-adv-x="440" d="M76 -268l96 481l193 -43l-132 -473z" />
<glyph unicode="-" horiz-adv-x="948" d="M154 553v182h641v-182h-641z" />
<glyph unicode="." horiz-adv-x="518" d="M123 106q0 61 32.5 101.5t104.5 40.5q70 0 102.5 -40t32.5 -102q0 -61 -32.5 -101t-102.5 -40q-71 0 -104 39q-33 41 -33 102z" />
<glyph unicode="/" horiz-adv-x="948" d="M25 -160l704 1725h195l-705 -1725h-194z" />
<glyph unicode="0" horiz-adv-x="1400" d="M98 719q0 162 34 300t106.5 239.5t187.5 160t274 58.5q160 0 275 -58.5t187.5 -160t106.5 -239.5t34 -300t-34 -298t-106.5 -235.5t-187.5 -156t-275 -56.5t-274 56.5t-188 154.5q-72 100 -106 236.5t-34 298.5zM311 723q0 -139 21.5 -247.5t67.5 -185.5t120 -118 q76 -39 180 -39t179 40t122.5 117t69 185.5t21.5 247.5q0 137 -21.5 247.5t-69 187.5t-122 118t-179.5 41q-104 0 -179 -41t-121 -118t-67.5 -187.5t-21.5 -247.5z" />
<glyph unicode="1" horiz-adv-x="1093" d="M82 1176l332 235q45 33 88 49.5t92 16.5q57 0 96 -36t39 -120v-1159h354v-162h-921v162h373v1065q0 45 -23 45q-12 0 -21.5 -6t-19.5 -13l-287 -204z" />
<glyph unicode="2" horiz-adv-x="1210" d="M45 166q0 41 22.5 86t82.5 92l483 383q63 49 111.5 91t81 84t50 86t17.5 99q0 66 -26.5 109t-67.5 67.5t-92.5 35t-102.5 10.5q-123 0 -217 -36t-182 -87l-80 135q41 31 96 58.5t120 49t135.5 35t141.5 13.5q223 0 350.5 -102.5t127.5 -276.5q0 -135 -79 -247t-208 -214 l-510 -397q-18 -16 -25.5 -24.5t-7.5 -20.5q0 -31 49 -31h811v-164h-895q-82 0 -134 43t-52 123z" />
<glyph unicode="3" horiz-adv-x="1138" d="M0 63l51 166q109 -45 202 -66.5t214 -21.5q74 0 142.5 16.5t122.5 52.5t86 92t32 134q0 45 -15.5 93.5t-56.5 88t-113.5 64.5t-187.5 25h-127v127l408 389q27 25 26 45q0 27 -41 26h-661v164h735q102 0 144.5 -42t42.5 -105q0 -43 -25 -91.5t-78 -95.5l-303 -276 q139 -4 228 -46t140.5 -103.5t71 -132t19.5 -128.5q0 -98 -38 -182t-111.5 -147.5t-183.5 -99.5t-253 -36q-94 0 -168 9.5t-131 22.5t-99 29.5t-73 28.5z" />
<glyph unicode="4" horiz-adv-x="1335" d="M57 563q0 53 22.5 104.5t82.5 110.5l682 680h182v-923h248v-166h-248v-369h-192v369h-545q-115 0 -173.5 54t-58.5 140zM252 592q0 -23 18.5 -40t61.5 -17h502v669l-529 -520q-25 -25 -39 -45.5t-14 -46.5z" />
<glyph unicode="5" horiz-adv-x="1189" d="M41 66l51 161q111 -45 208 -67.5t220 -22.5q176 0 269.5 89t93.5 237q0 78 -26 133t-71 90t-107.5 50.5t-137.5 15.5q-70 0 -136.5 -12.5t-140.5 -43.5l-104 64l24 698h842v-164h-659l-17 -405q51 16 110.5 23.5t141.5 7.5q86 0 174 -25t158 -79t114 -139t44 -204 q0 -102 -33 -193.5t-102.5 -159t-179 -107.5t-265.5 -40q-94 0 -168 9.5t-131 23.5t-99 30.5t-73 29.5z" />
<glyph unicode="6" horiz-adv-x="1298" d="M102 631q0 160 32 312.5t108.5 271t202.5 190.5t315 72q125 0 216 -21.5t169 -62.5l-62 -148q-88 35 -160.5 51.5t-160.5 16.5q-121 0 -201 -38t-131 -103.5t-76.5 -152.5t-38.5 -183q92 66 190.5 93t196.5 27q115 0 207 -34.5t156.5 -97t99.5 -148.5t35 -189 q0 -113 -39 -207t-109.5 -162.5t-168 -106.5t-211.5 -38q-264 0 -417 167t-153 491zM309 647q0 -90 15.5 -180t55 -164t109.5 -121q72 -45 185 -45q152 0 234.5 90t82.5 248q0 80 -24.5 139.5t-68.5 98.5t-104.5 57t-134.5 18q-53 0 -105 -13t-98 -33.5t-84 -46t-63 -48.5z " />
<glyph unicode="7" horiz-adv-x="1163" d="M41 1294v164h907q82 0 128 -37t46 -96q0 -29 -9 -56.5t-32 -68.5l-659 -1200h-217l680 1233q4 10 9 20.5t5 20.5q0 20 -31 20h-827z" />
<glyph unicode="8" horiz-adv-x="1300" d="M96 375q0 66 22.5 124t59.5 107t84 89t98 69q-86 49 -140 129t-54 192q0 86 35 158t100.5 124t157.5 81t209 29q123 0 213 -29t150.5 -79t90 -116.5t29.5 -140.5q0 -117 -60.5 -208t-144.5 -154q117 -48 187 -134q70 -84 69 -215q0 -92 -39 -170.5t-112.5 -136 t-180 -89.5t-243.5 -32q-141 0 -241.5 31t-165 85t-94.5 128t-30 158zM301 381q0 -104 83 -175t249 -71q170 0 264 76t96 192q0 104 -67.5 156.5t-186.5 83.5l-209 53q-100 -59 -164.5 -130.5t-64.5 -184.5zM360 1094q0 -92 57.5 -151.5t182.5 -92.5l164 -43q80 47 133 125 t55 168q0 43 -17 82t-53 68.5t-90.5 48t-129.5 18.5q-141 0 -221.5 -63.5t-80.5 -159.5z" />
<glyph unicode="9" horiz-adv-x="1302" d="M96 961q0 113 40 208t110.5 163.5t168 106.5t212.5 38q129 0 233.5 -42t179 -125t114.5 -206t40 -285q0 -160 -29.5 -312.5t-103.5 -271t-201 -190.5t-323 -72q-125 0 -226.5 21.5t-177.5 60.5l60 152q88 -37 167.5 -53.5t167.5 -16.5q125 0 209 39t134.5 104.5t75 150.5 t34.5 177q-78 -61 -183.5 -87.5t-203.5 -26.5q-115 0 -207 34.5t-156.5 96t-99.5 147.5t-35 189zM305 975q0 -80 24.5 -139.5t67.5 -98.5q45 -39 105.5 -57t134.5 -18q53 0 105.5 13t98.5 33.5t84 45t62 49.5q0 88 -14.5 178t-54 164t-109.5 120t-182 46q-152 0 -237 -89 t-85 -247z" />
<glyph unicode=":" horiz-adv-x="518" d="M123 106q0 61 32.5 101.5t104.5 40.5q70 0 102.5 -40t32.5 -102q0 -61 -32.5 -101t-102.5 -40q-71 0 -104 39q-33 41 -33 102zM123 899q0 61 32.5 101t104.5 40q70 0 102.5 -39.5t32.5 -101.5q0 -59 -32.5 -100t-102.5 -41q-71 0 -104 41t-33 100z" />
<glyph unicode=";" horiz-adv-x="516" d="M61 -268l93 485l194 -47l-143 -473zM123 899q0 61 31.5 101t103.5 40q70 0 102.5 -39.5t32.5 -101.5q0 -59 -32.5 -100t-102.5 -41q-71 0 -104 41q-31 41 -31 100z" />
<glyph unicode="&#x3c;" horiz-adv-x="1372" d="M174 690q0 86 58.5 139.5t164.5 96.5l764 315l66 -162l-768 -317q-43 -18 -63.5 -32.5t-20.5 -39.5q0 -31 25.5 -43t62.5 -29l764 -319l-66 -166l-764 322q-106 45 -164.5 95t-58.5 140z" />
<glyph unicode="=" horiz-adv-x="1372" d="M195 449v163h993v-163h-993zM195 778v164h993v-164h-993z" />
<glyph unicode="&#x3e;" horiz-adv-x="1372" d="M145 299l764 319q37 16 62.5 28.5t25.5 43.5q0 25 -20.5 39t-63.5 33l-768 317l66 162l764 -315q106 -43 164.5 -96.5t58.5 -139.5q0 -90 -58.5 -140t-164.5 -95l-764 -322z" />
<glyph unicode="?" horiz-adv-x="1177" d="M82 1346q41 31 99.5 58.5t126 49t140 34.5t142.5 13q131 0 226 -29.5t157.5 -80t92.5 -117t30 -141.5q0 -119 -57.5 -201t-149.5 -150l-113 -82q-39 -29 -65.5 -50t-43 -42.5t-23.5 -46t-7 -57.5v-84h-188v106q0 49 11 85t30.5 65t47 53.5t60.5 48.5l147 115 q72 55 108 108.5t36 112.5q0 106 -78 162.5t-236 56.5q-117 0 -217 -36.5t-192 -94.5zM410 106q0 61 32.5 101.5t104.5 40.5q70 0 102.5 -40t32.5 -102q0 -61 -33 -101t-102 -40q-72 0 -105 39q-33 41 -32 102z" />
<glyph unicode="@" horiz-adv-x="2013" d="M92 461q0 209 72 381t197.5 292.5t297.5 187.5t371 67q201 0 365 -55.5t280.5 -158t180 -247t63.5 -322.5q0 -145 -44 -257.5t-127 -189.5t-199.5 -118t-260.5 -41h-323q-72 0 -133.5 15.5t-107.5 48t-71.5 85t-25.5 123.5q0 96 42 152.5t108.5 84.5t146.5 35t157 7h109 v33q0 98 -41 140t-135 42q-66 0 -124.5 -12.5t-137.5 -40.5l-54 133q66 27 148 46t186 19t170 -25.5t101.5 -72.5t48 -111.5t12.5 -144.5v-405q168 4 262 119.5t94 330.5q0 139 -44 254t-132 196t-217 126t-297 45q-166 0 -301 -53.5t-230.5 -152.5t-146.5 -240.5 t-51 -315.5q0 -188 58.5 -327.5t163 -231.5t251 -137.5t322.5 -45.5q92 0 162.5 8.5t126 19.5t97.5 25.5t77 26.5l55 -137q-25 -12 -75 -28.5t-118.5 -33t-153.5 -27.5t-180 -11q-213 0 -395 55t-315 168t-209 280.5t-76 395.5zM805 283q0 -39 14.5 -64.5t38 -41t53 -23 t62.5 -7.5h221v265h-225q-66 0 -115 -31t-49 -98z" />
<glyph unicode="A" horiz-adv-x="1460" d="M25 25l385 1220q18 59 42.5 106.5t62.5 81t90 52t126 18.5t126 -18.5t90 -51t63.5 -80.5t44.5 -106l381 -1222l-193 -45l-158 495h-716l-156 -495zM420 643h614l-178 569q-23 72 -51.5 97.5t-75.5 25.5q-49 0 -77.5 -25.5t-51.5 -97.5z" />
<glyph unicode="B" horiz-adv-x="1351" d="M154 0v1477h534q102 0 194.5 -19.5t163 -64.5t111.5 -118t41 -179q0 -51 -16.5 -98.5t-43 -87.5t-62.5 -70.5t-72 -48.5q45 -14 94 -42t89 -73t66.5 -108.5t26.5 -147.5q0 -100 -36 -178t-100.5 -132.5t-154.5 -82t-201 -27.5h-634zM354 162h412q135 0 221 59.5t86 200.5 q0 53 -15.5 94t-40 71.5t-57 50t-67.5 30.5q-45 14 -88 16t-96 2h-355v-524zM354 852h340q63 0 118.5 13.5t95.5 42t62.5 74.5t22.5 112q0 125 -94 173t-260 48h-285v-463z" />
<glyph unicode="C" horiz-adv-x="1415" d="M98 735q0 166 47.5 306.5t140.5 244t232 160.5t324 57q160 0 275.5 -28.5t207.5 -65.5l-59 -156q-66 25 -120 41.5t-103.5 25.5t-96.5 13t-98 4q-262 0 -399.5 -157.5t-137.5 -444.5q0 -305 131 -456.5t389 -151.5q70 0 126.5 6t107.5 17.5t103.5 30t113.5 42.5l55 -149 q-119 -53 -238.5 -82t-273.5 -29q-205 0 -344 58.5t-224 161t-122 244.5t-37 308z" />
<glyph unicode="D" horiz-adv-x="1538" d="M154 0v1477h567q174 0 308 -53.5t225.5 -149.5t138.5 -231.5t47 -299.5q0 -162 -43 -298t-131 -235t-223.5 -154.5t-321.5 -55.5h-567zM354 166h351q248 0 385 133t137 434t-137.5 439.5t-384.5 138.5h-351v-1145z" />
<glyph unicode="E" horiz-adv-x="1261" d="M154 0v1477h1015v-166h-817v-457h633v-166h-633v-522h834v-166h-1032z" />
<glyph unicode="F" horiz-adv-x="1210" d="M154 0v1477h1015v-166h-817v-457h633v-166h-633v-688h-198z" />
<glyph unicode="G" horiz-adv-x="1544" d="M98 735q0 166 47.5 306.5t140.5 244t231 160.5t323 57q160 0 276.5 -28.5t208.5 -65.5l-59 -156q-66 25 -120 41.5t-103.5 25.5t-97.5 13t-99 4q-260 0 -397.5 -157.5t-137.5 -444.5q0 -305 131 -455.5t381 -150.5q129 0 222.5 25.5t152.5 56.5v407h-412v166h613v-663 q-47 -35 -111.5 -63.5t-140.5 -49t-158 -33t-166 -12.5q-203 0 -342 58.5t-224 161t-122 244.5t-37 308z" />
<glyph unicode="H" horiz-adv-x="1470" d="M154 0v1477h200v-623h762v623h201v-1477h-201v686h-762v-686h-200z" />
<glyph unicode="I" horiz-adv-x="516" d="M158 0v1477h200v-1477h-200z" />
<glyph unicode="J" horiz-adv-x="1013" d="M14 37l74 158q43 -23 123 -44.5t174 -21.5q131 0 206 72.5t75 257.5v1018h200v-1026q0 -238 -120.5 -363t-360.5 -125q-141 0 -231.5 24.5t-139.5 49.5z" />
<glyph unicode="K" horiz-adv-x="1376" d="M154 0v1477h200v-635h115q63 0 92 13t60 50l493 598l152 -108l-527 -627l617 -678l-146 -121l-559 615q-23 25 -41 42t-37.5 28.5t-44 15.5t-57.5 4h-117v-674h-200z" />
<glyph unicode="L" horiz-adv-x="1226" d="M154 0v1477h200v-1311h832v-166h-1032z" />
<glyph unicode="M" horiz-adv-x="1712" d="M154 0v1477h200l410 -709q31 -53 50.5 -73.5t43.5 -20.5q25 0 45.5 19.5t50.5 72.5l410 711h195v-1477h-197v1126l-264 -462q-33 -57 -63.5 -94.5t-60.5 -57.5t-59.5 -27.5t-60.5 -7.5t-60.5 8.5t-59 29t-59.5 56t-61 91.5l-264 462v-1124h-196z" />
<glyph unicode="N" horiz-adv-x="1521" d="M154 0v1477h221l739 -1250q10 -16 17.5 -27.5t19.5 -11.5q16 0 20.5 14.5t4.5 47.5v1227h192v-1225q0 -78 -16.5 -129t-44 -82t-63.5 -44t-73 -13q-47 0 -80.5 12t-60 36.5t-50.5 59.5t-50 78l-582 987v-1157h-194z" />
<glyph unicode="O" horiz-adv-x="1581" d="M98 733q0 152 41 291t125 245.5t215 170t312 63.5q184 0 316 -63.5t215 -170t122 -245.5t39 -291t-41 -291t-125 -245.5t-215 -170t-311 -63.5q-184 0 -316.5 64t-216.5 170q-82 106 -121 245.5t-39 290.5zM311 733q0 -127 30 -237.5t89.5 -191.5t149.5 -128t211 -47 t211 47t149 128t89 191.5t30 237.5t-30 237.5t-89 191.5t-149.5 128t-210.5 47q-121 0 -211.5 -47t-149.5 -128t-89 -191.5t-30 -237.5z" />
<glyph unicode="P" horiz-adv-x="1273" d="M154 0v1477h544q102 0 193.5 -26t160 -83t108.5 -146t40 -214q0 -102 -40 -186.5t-108.5 -145t-162.5 -94t-205 -33.5h-330v-549h-200zM354 709h297q61 0 123 14t109 49t77.5 92.5t30.5 143.5q0 100 -28.5 161.5t-76.5 94t-109.5 43t-127.5 10.5h-295v-608z" />
<glyph unicode="Q" horiz-adv-x="1581" d="M98 725q0 150 39 290t122 248.5t215 174t317 65.5q184 0 315 -65.5t215 -174t123 -249t39 -289.5q0 -186 -60.5 -348t-189.5 -271l223 -272l-145 -119l-246 293q-59 -20 -128 -32.5t-146 -12.5q-184 0 -316.5 62.5t-215.5 167t-122 242.5t-39 290zM311 729 q0 -127 30 -236.5t89.5 -190.5t149.5 -128q90 -45 211 -45q125 0 216 46t149 127t86 190.5t28 236.5t-30 237.5t-90 193.5t-150.5 130t-208.5 47q-121 0 -211.5 -47t-149.5 -130t-89 -193.5t-30 -237.5z" />
<glyph unicode="R" horiz-adv-x="1333" d="M154 0v1477h528q102 0 192.5 -22.5t158 -73t107.5 -133.5t40 -204q0 -80 -32 -150.5t-83 -125.5t-115.5 -92t-132.5 -49q43 -27 81 -62t81 -84l336 -393l-141 -121l-381 441q-51 57 -88 93t-69 55t-63.5 25.5t-70.5 6.5h-148v-588h-200zM354 750h283q68 0 129 17 t107.5 53t74 89.5t27.5 124.5q0 88 -24.5 143.5t-69.5 86t-107.5 42t-138.5 11.5h-281v-567z" />
<glyph unicode="S" horiz-adv-x="1294" d="M59 57l56 166q227 -92 477 -92q211 0 310 72.5t99 195.5q0 74 -31.5 119t-86 75t-126 46t-149.5 33q-84 16 -172 39.5t-158.5 67.5t-115.5 115t-45 181q0 92 32.5 170t103.5 135.5t183.5 90t274.5 32.5q145 0 258.5 -26.5t212.5 -61.5l-52 -160q-106 39 -208.5 61.5 t-225.5 22.5q-186 0 -279 -65.5t-93 -181.5q0 -66 30.5 -107t81.5 -67.5t120 -42t142 -29.5q88 -16 179.5 -41t166 -71t121.5 -121.5t47 -194.5q0 -209 -157.5 -332t-462.5 -123q-193 0 -329 33t-204 61z" />
<glyph unicode="T" horiz-adv-x="1230" d="M41 1313v164h1149v-164h-477v-1313h-201v1313h-471z" />
<glyph unicode="U" horiz-adv-x="1486" d="M147 614v863h201v-815q0 -123 14.5 -221.5t57.5 -167t119.5 -106.5t201.5 -38t203 37t121 105.5t58.5 164.5t15.5 215v826h200v-834q0 -147 -24.5 -271t-91 -215t-183 -142.5t-299.5 -51.5q-184 0 -299.5 47t-181 132t-89.5 205t-24 267z" />
<glyph unicode="V" horiz-adv-x="1460" d="M25 1452l190 43l389 -1241q23 -74 50.5 -99.5t76.5 -25.5q47 0 76 25.5t51 99.5l389 1241l189 -43l-381 -1235q-18 -57 -43 -104t-64 -81t-91 -52.5t-126 -18.5t-127 17.5t-91 50t-63.5 80t-43.5 108.5z" />
<glyph unicode="W" horiz-adv-x="1955" d="M92 1460l199 29l127 -1086q10 -84 35.5 -136t62.5 -80.5t80 -39t90 -10.5q119 0 193 68v1272h198v-1272q37 -35 88.5 -51.5t110.5 -16.5q45 0 88 10.5t79 39t60.5 80.5t34.5 136l127 1086l199 -29l-133 -1093q-10 -92 -39 -165t-80 -123t-126 -78t-179 -28 q-199 0 -330 88q-78 -43 -153.5 -65.5t-176.5 -22.5q-207 0 -304 105.5t-118 288.5z" />
<glyph unicode="X" horiz-adv-x="1425" d="M20 76l506 684l-448 635l155 100l377 -543q39 -53 57.5 -73.5t45.5 -20.5t45 20.5t57 73.5l377 543l156 -102l-443 -631l500 -686l-156 -103l-430 590q-39 53 -58.5 73.5t-47.5 20.5q-29 0 -48.5 -20.5t-58.5 -73.5l-430 -590z" />
<glyph unicode="Y" horiz-adv-x="1359" d="M25 1421l178 74l319 -676q23 -49 41.5 -77.5t36.5 -44t36.5 -20.5t41.5 -5q25 0 43 5t36.5 20.5t37 46t43.5 79.5l319 670l178 -72l-291 -594q-31 -61 -58.5 -113t-58 -92t-67.5 -67t-86 -39v-516h-203v514q-47 12 -80.5 34.5t-61.5 57.5t-52.5 82t-52.5 109z" />
<glyph unicode="Z" horiz-adv-x="1261" d="M20 154q0 31 14.5 68.5t65.5 99.5l818 991h-801v164h1075v-125l-920 -1108q-16 -18 -23 -29.5t-7 -24.5q0 -27 41 -26h913v-164h-985q-100 0 -145.5 40t-45.5 114z" />
<glyph unicode="[" horiz-adv-x="714" d="M152 -297v1772h522v-152h-330v-1466h330v-154h-522z" />
<glyph unicode="\" horiz-adv-x="948" d="M25 1565h198l703 -1725h-197z" />
<glyph unicode="]" horiz-adv-x="714" d="M41 -143h332v1466h-332v152h522v-1772h-522v154z" />
<glyph unicode="^" horiz-adv-x="1132" d="M104 782l230 514q49 109 97 158t134 49t134.5 -48t97.5 -157l231 -516l-158 -59l-235 530q-14 33 -27.5 49.5t-42.5 16.5t-41 -16.5t-26 -49.5l-236 -530z" />
<glyph unicode="_" horiz-adv-x="1230" d="M102 0h1026v-162h-1026v162z" />
<glyph unicode="`" d="M313 1526l158 108l268 -385l-116 -82z" />
<glyph unicode="a" horiz-adv-x="1114" d="M78 285q0 90 34.5 153.5t91 104.5t129.5 59.5t148 18.5h291v49q0 133 -52 185t-175 52q-84 0 -157 -12t-165 -45l-49 141q72 27 167 49.5t224 22.5q127 0 206 -31t122 -86t58.5 -133t15.5 -174v-440l86 -129l-131 -105l-99 109q-31 -18 -68.5 -38t-83.5 -36t-99.5 -26.5 t-112.5 -10.5q-78 0 -146.5 18.5t-121 57.5t-83 99.5t-30.5 146.5zM276 293q0 -49 18.5 -83t48.5 -54.5t70 -28.5t83 -8q92 0 158.5 31.5t121.5 68.5v250h-284q-90 0 -153 -43t-63 -133z" />
<glyph unicode="b" horiz-adv-x="1200" d="M145 14v1463h191v-469q55 27 131 41t154 14q106 0 196 -36t155.5 -104.5t101.5 -171t36 -233.5q0 -125 -36 -227.5t-106.5 -175t-173 -112.5t-235.5 -40q-86 0 -191.5 9.5t-222.5 41.5zM336 143q47 -14 98 -18t131 -4q70 0 131.5 21.5t108.5 68.5t75.5 122t28.5 183 q0 109 -26.5 182.5t-70.5 118.5t-103.5 64.5t-124.5 19.5q-68 0 -128.5 -11t-119.5 -42v-705z" />
<glyph unicode="c" horiz-adv-x="1083" d="M90 504q0 119 35 221t103.5 177t170 117t234.5 42q123 0 214 -22.5t157 -49.5l-60 -149q-90 33 -159.5 47t-145.5 14q-86 0 -151.5 -29.5t-109.5 -82t-66.5 -126t-22.5 -159.5q0 -188 86 -284.5t252 -96.5q80 0 160.5 13.5t168.5 49.5l56 -147q-78 -33 -174.5 -54.5 t-212.5 -21.5q-147 0 -250 40t-165.5 110.5t-91 170t-28.5 220.5z" />
<glyph unicode="d" horiz-adv-x="1214" d="M90 498q0 127 38 231.5t109.5 178t175 114.5t236.5 41q74 0 120 -5t99 -14v433h191v-1278l88 -131l-131 -103l-103 109q-66 -41 -150.5 -76t-193.5 -35q-125 0 -216 40t-149.5 111.5t-86 169t-27.5 214.5zM291 498q0 -106 24.5 -178t66.5 -115t95 -61.5t109 -18.5 q102 0 170.5 35t111.5 63v656q-49 12 -98 19t-125 7q-68 0 -131 -23.5t-112.5 -72.5t-80 -126t-30.5 -185z" />
<glyph unicode="e" horiz-adv-x="1153" d="M90 508q0 113 31 213t93 176t157.5 121t224.5 45q231 0 345 -135t114 -383l-92 -90h-672q4 -154 91 -243t247 -89q51 0 92 4t81 12t83 20.5t98 28.5l53 -147q-74 -27 -172 -52.5t-239 -25.5q-147 0 -249 39t-165.5 110.5t-92 172t-28.5 223.5zM293 608h565 q0 84 -20.5 141.5t-56.5 92.5t-84 49t-103 14q-139 0 -215 -81t-86 -216z" />
<glyph unicode="f" horiz-adv-x="761" d="M51 874v152h146v135q0 74 20.5 136.5t65.5 108.5t115.5 71.5t170.5 25.5q57 0 110.5 -7t113.5 -23l-33 -144q-51 14 -92 20.5t-95 6.5q-59 0 -95 -16.5t-56.5 -44t-27.5 -66.5t-7 -82v-121h342v-152h-342v-874h-190v874h-146z" />
<glyph unicode="g" horiz-adv-x="1206" d="M90 512q0 131 40 234.5t108.5 173t162 106.5t197.5 37q74 0 153.5 -20.5t147.5 -61.5l57 94l164 -76l-63 -172v-905q0 -115 -42 -188.5t-110.5 -116.5t-157 -60.5t-180.5 -17.5q-104 0 -200.5 16.5t-169.5 43.5l45 155q61 -18 145 -37.5t182 -19.5q49 0 101.5 7 t95.5 30.5t71.5 65.5t28.5 114v92q-61 -16 -126.5 -29.5t-141.5 -13.5q-141 0 -238.5 42t-158 116t-86 174t-25.5 217zM291 512q0 -209 86 -300t225 -91q78 0 141.5 13t122.5 38v639q-45 39 -111.5 63.5t-146.5 24.5q-63 0 -120.5 -19.5t-100.5 -65.5t-69.5 -119.5 t-26.5 -182.5z" />
<glyph unicode="h" horiz-adv-x="1206" d="M139 0v1477h191v-502q80 39 164 63.5t186 24.5q106 0 180 -32t118 -86t63.5 -127t19.5 -152v-666h-191v657q0 129 -64.5 185.5t-168.5 56.5q-94 0 -172 -26.5t-135 -55.5v-817h-191z" />
<glyph unicode="i" horiz-adv-x="528" d="M74 874v152h309v-1026h-190v874h-119zM147 1356q0 55 33 95t99 40t98.5 -40t32.5 -95t-33 -94t-98 -39q-66 0 -99 39t-33 94z" />
<glyph unicode="j" horiz-adv-x="512" d="M-256 -414l43 152q41 -14 94 -25.5t119 -11.5q63 0 99 16.5t54.5 45t23.5 67.5t5 84v1112h191v-1147q0 -72 -17.5 -134t-58.5 -108.5t-112.5 -72t-178.5 -25.5q-57 0 -134 11.5t-128 35.5zM145 1356q0 55 33 95t98 40q66 0 99 -40t33 -95t-33 -94t-99 -39q-65 0 -98 39 t-33 94z" />
<glyph unicode="k" horiz-adv-x="1107" d="M145 0v1477h191v-848h65q47 0 74 8t53 37l342 391l146 -107l-359 -399l451 -469l-135 -121l-414 428q-33 35 -59.5 50.5t-77.5 15.5h-86v-463h-191z" />
<glyph unicode="l" horiz-adv-x="507" d="M53 1317v160h309v-1477h-190v1317h-119z" />
<glyph unicode="m" horiz-adv-x="1746" d="M86 999l164 76l63 -108q59 35 145.5 65.5t174.5 30.5q100 0 170.5 -26.5t114.5 -67.5q76 35 164.5 64.5t181.5 29.5q106 0 173.5 -32t106.5 -87t52.5 -128t13.5 -152v-664h-191v653q0 133 -46 189.5t-152 56.5q-72 0 -139.5 -18.5t-114.5 -42.5q6 -25 10 -73t4 -103v-662 h-190v653q0 68 -7.5 115t-29 75.5t-59.5 42t-97 13.5q-88 0 -149.5 -22.5t-108.5 -49.5v-827h-190v827z" />
<glyph unicode="n" horiz-adv-x="1200" d="M86 999l164 76l63 -108q86 41 175.5 68.5t197.5 27.5q109 0 181.5 -32t115.5 -86t61.5 -127t18.5 -152v-666h-191v655q0 129 -61 186.5t-166 57.5q-94 0 -170 -26.5t-135 -55.5v-817h-190v827z" />
<glyph unicode="o" horiz-adv-x="1210" d="M90 512q0 117 32 218t96.5 175t161.5 116t226 42q133 0 230.5 -42t160 -116t93 -174t30.5 -217t-28.5 -218t-91 -175t-161 -116t-235.5 -42q-141 0 -239.5 42t-159.5 116q-59 74 -87 174t-28 217zM285 512q0 -193 83.5 -292t237.5 -99t236 99t82 292q0 195 -83 294 t-235 99q-156 0 -238.5 -99t-82.5 -294z" />
<glyph unicode="p" horiz-adv-x="1208" d="M86 999l164 76l63 -108q70 35 153 65.5t187 30.5q100 0 186.5 -36t148 -104.5t96 -171t34.5 -235.5q0 -123 -32.5 -225.5t-99 -175t-167 -112.5t-235.5 -40q-53 0 -117 8.5t-127 24.5v-442h-190v1273zM340 164q29 -10 55.5 -18.5t55 -13.5t63.5 -8t80 -3q63 0 121.5 21.5 t103.5 68.5t72 122t27 183q0 106 -25 180t-66 119t-98 64.5t-123 19.5q-74 0 -134 -22.5t-132 -61.5v-651z" />
<glyph unicode="q" horiz-adv-x="1198" d="M90 508q0 131 42 234.5t117 175t179 108.5t229 37q102 0 196.5 -13.5t199.5 -41.5v-1454h-191v450q-63 -18 -134 -29.5t-130 -11.5q-133 0 -229.5 39t-157.5 109.5t-91 171t-30 225.5zM291 508q0 -109 23.5 -182.5t65.5 -119.5t98.5 -65.5t123.5 -19.5q82 0 142.5 14.5 t117.5 36.5v707q-47 12 -108.5 17t-98.5 5q-70 0 -135 -21.5t-115.5 -68.5t-82 -122t-31.5 -181z" />
<glyph unicode="r" horiz-adv-x="811" d="M74 874v152h260l24 -104q20 16 53 36.5t74 39t91.5 30.5t103.5 12q37 0 60.5 -3t50.5 -11l-33 -168q-18 4 -41 8t-68 4q-37 0 -75.5 -9t-74.5 -23.5t-66 -34t-50 -39.5v-764h-190v874h-119z" />
<glyph unicode="s" horiz-adv-x="980" d="M61 29l43 157q8 -4 43 -14t84.5 -21.5t109.5 -20.5t120 -9q129 0 188.5 45t59.5 119q0 41 -16.5 67.5t-50.5 44t-83 29.5t-113 25q-49 8 -110.5 22t-115.5 46t-91 85t-37 144q0 68 24.5 125t77 100t133.5 66.5t191 23.5q123 0 221.5 -24.5t145.5 -47.5l-58 -143 q-72 25 -148.5 43t-172.5 18q-121 0 -172 -39t-51 -104q0 -45 23.5 -72.5t63.5 -45t90 -28t105 -18.5q61 -10 122 -27.5t110 -50t78.5 -87t29.5 -140.5q0 -154 -111.5 -244t-338.5 -90q-72 0 -138.5 9.5t-121 20.5t-90 21.5t-44.5 14.5z" />
<glyph unicode="t" horiz-adv-x="815" d="M57 874v152h146v305h188v-305h344v-152h-344v-530q0 -123 45 -170t137 -47q53 0 98.5 7t96.5 22l37 -146q-70 -18 -130.5 -27.5t-137.5 -9.5q-74 0 -135.5 16.5t-105.5 55.5t-68.5 100.5t-24.5 153.5v575h-146z" />
<glyph unicode="u" horiz-adv-x="1196" d="M133 360v666h191v-655q0 -133 61 -188.5t166 -55.5q94 0 170 29.5t129 64.5v805h190v-829l88 -127l-133 -105l-102 107q-74 -47 -170 -78t-199 -31q-113 0 -188.5 32t-120.5 86t-63.5 127t-18.5 152z" />
<glyph unicode="v" horiz-adv-x="1185" d="M31 997l180 45l283 -809q23 -63 45 -85.5t55 -22.5q31 0 53.5 22.5t44.5 83.5l283 811l180 -45l-281 -798q-20 -57 -43.5 -101.5t-56.5 -74t-78 -45t-106 -15.5t-105.5 15.5t-76 46t-54 74.5t-43.5 102z" />
<glyph unicode="w" horiz-adv-x="1619" d="M88 1004l193 22l79 -754q6 -51 26 -80.5t47.5 -45t58 -20.5t59.5 -5q43 0 87 11t83 40v854h180v-854q39 -29 83 -40t87 -11q27 0 57.5 5t58 20.5t48 45t27.5 78.5l79 756l191 -22l-84 -756q-6 -61 -28.5 -112.5t-63.5 -90.5t-101.5 -60.5t-144.5 -21.5q-88 0 -158.5 21.5 t-140.5 56.5q-70 -35 -141.5 -56.5t-159.5 -21.5q-86 0 -147.5 21.5t-101.5 60.5t-61.5 90t-27.5 113z" />
<glyph unicode="x" horiz-adv-x="1097" d="M10 70l369 446l-324 432l138 105l290 -394q25 -33 37 -41t29 -8q16 0 28.5 8.5t36.5 40.5l291 394l137 -105l-323 -432l368 -446l-139 -105l-332 402q-27 31 -39 40t-28 9t-28.5 -9.5t-39.5 -39.5l-331 -402z" />
<glyph unicode="y" horiz-adv-x="1134" d="M35 1006l184 45l193 -746q12 -45 25.5 -78.5t35 -56.5t53 -34t78.5 -11q33 0 80 6l242 920l174 -45l-303 -1164q-23 -90 -63 -148.5t-92 -92t-115.5 -48t-137.5 -14.5q-59 0 -133 10.5t-131 28.5l31 152q66 -16 121 -25.5t116 -9.5q82 0 136.5 32.5t80.5 120.5l33 123 q-49 -6 -90 -6q-76 0 -129 18.5t-90 56.5t-62.5 94t-44.5 130z" />
<glyph unicode="z" horiz-adv-x="1038" d="M55 156q0 43 18.5 76.5t49.5 62.5l588 573h-605v158h857v-154l-666 -647q-12 -12 -18.5 -20t-6.5 -19q0 -27 43 -26h664v-160h-735q-98 0 -143.5 46t-45.5 110z" />
<glyph unicode="{" horiz-adv-x="862" d="M98 545v151h197v541q0 61 11 106.5t39 75t73 44t114 14.5h289v-152h-256q-43 0 -64.5 -16.5t-21.5 -61.5v-1315q0 -45 21.5 -61t64.5 -16h256v-152h-289q-70 0 -114.5 14.5t-72.5 44t-39 74.5t-11 107v602h-197z" />
<glyph unicode="|" horiz-adv-x="505" d="M158 -465v2085h190v-2085h-190z" />
<glyph unicode="}" horiz-adv-x="862" d="M41 -145h256q43 0 64.5 16t21.5 61v1315q0 45 -21.5 61.5t-64.5 16.5h-256v152h287q137 0 188 -59.5t51 -180.5v-541h195v-151h-195v-602q0 -121 -51 -180.5t-188 -59.5h-287v152z" />
<glyph unicode="~" horiz-adv-x="1298" d="M131 721q23 27 58.5 56.5t78.5 54t88 41t88 16.5q53 0 101.5 -15.5t96.5 -33t96 -32.5t102 -15q63 0 117.5 36.5t93.5 71.5l106 -123q-23 -29 -59.5 -57.5t-79.5 -52t-88 -39t-88 -15.5q-53 0 -102.5 14.5t-97.5 32t-97 32t-101 14.5q-63 0 -115.5 -36t-90.5 -69z" />
<glyph unicode="&#xa1;" horiz-adv-x="546" d="M102 922q0 61 33 101t103 40t102.5 -40t32.5 -101t-33 -101.5t-102 -40.5q-70 0 -103 39q-33 41 -33 103zM121 -449l35 1057h159l35 -1057h-229z" />
<glyph unicode="&#xa2;" horiz-adv-x="1167" d="M164 653q0 109 28.5 202t84 166t138.5 120t193 61v234h174v-228q96 -8 168 -27.5t127 -41.5l-59 -146q-45 16 -82 27.5t-73 17.5t-71.5 8.5t-78.5 2.5q-86 0 -151.5 -30t-109.5 -82t-67 -125t-23 -159q0 -188 86.5 -284.5t251.5 -96.5q80 0 161 13.5t169 50.5l55 -148 q-63 -27 -139 -46t-164 -27v-240h-174v242q-123 12 -207 55t-137 113.5t-76.5 164t-23.5 203.5z" />
<glyph unicode="&#xa3;" horiz-adv-x="1230" d="M86 633v166h254l82 291q25 92 60.5 163.5t90 120.5t130 76t182.5 27q98 0 195.5 -27t170.5 -66l-71 -147q-53 29 -128 50.5t-159 21.5q-39 0 -78 -5.5t-74.5 -26t-65.5 -60t-48 -109.5l-88 -309h452v-166h-497l-101 -357q-4 -18 -8 -34.5t-4 -30.5q0 -47 61 -47h709v-164 h-813q-51 0 -84 10t-52.5 28.5t-27.5 42t-8 52.5q0 39 11 81t22 83l94 336h-207z" />
<glyph unicode="&#xa4;" horiz-adv-x="1499" d="M61 166l308 311q-45 59 -67.5 123t-22.5 145q0 78 21.5 139.5t61.5 119.5l-301 305l134 123l292 -299q57 39 124 60t141 21q72 0 137 -20t123 -59l291 297l135 -123l-297 -301q41 -59 62.5 -122t21.5 -141q0 -84 -22.5 -147t-69.5 -123l305 -309l-129 -117l-301 305 q-115 -76 -256 -75q-72 0 -137.5 20t-120.5 57l-306 -307zM455 745q0 -61 23.5 -115.5t63.5 -94t93 -64.5q55 -23 117 -22q61 0 115.5 23.5t94 63t63.5 94t24 115.5t-24 115.5t-63.5 94.5t-94 63.5t-115.5 23.5t-115.5 -23.5t-94.5 -63.5t-63.5 -94t-23.5 -116z" />
<glyph unicode="&#xa5;" horiz-adv-x="1351" d="M72 1421l178 74l266 -565q23 -49 41 -78t36.5 -44t38 -20.5t42.5 -5.5q25 0 43 5.5t36.5 20.5t38 46t44.5 80l266 559l178 -72l-238 -485q-23 -47 -47 -92t-53 -70h201v-147h-373v-170h373v-148h-373v-309h-203v309h-356v148h356v170h-356v147h186q-23 25 -42 58.5 t-38 72.5z" />
<glyph unicode="&#xa6;" horiz-adv-x="505" d="M158 401h190v-866h-190v866zM158 877v743h190v-743h-190z" />
<glyph unicode="&#xa7;" horiz-adv-x="1239" d="M137 598q0 80 40 154.5t134 150.5q-49 37 -80.5 92.5t-31.5 132.5q0 84 36.5 148.5t99 110t147.5 68t182 22.5q131 0 230 -25t146 -47l-57 -143q-72 25 -148.5 43t-172.5 18q-51 0 -100.5 -9t-88.5 -31.5t-63.5 -58.5t-24.5 -89t26.5 -85t70.5 -53.5t102.5 -36 t122.5 -28.5q84 -20 158.5 -42t130 -55.5t88 -85t32.5 -128.5q0 -84 -37 -164t-131 -156q43 -37 73 -89t30 -128q0 -84 -40 -149.5t-107.5 -110.5t-156 -68.5t-184.5 -23.5q-162 0 -264 27.5t-149 50.5l57 143q72 -25 153.5 -46.5t204.5 -21.5q51 0 104.5 10.5t96.5 33 t70.5 58.5t27.5 89q0 47 -26.5 78.5t-70.5 53t-102.5 36t-121.5 28.5q-82 18 -156 40t-129 56.5t-88 90t-33 139.5zM313 608q0 -43 20.5 -70.5t61.5 -48t102.5 -36t145.5 -31.5q35 -8 78 -16.5t84 -22.5q78 53 103.5 106.5t25.5 112.5q0 41 -20.5 69.5t-60.5 49t-102.5 37 t-144.5 33.5q-76 12 -149 36q-76 -51 -111 -104q-33 -53 -33 -115z" />
<glyph unicode="&#xa8;" d="M150 1370q0 55 31.5 94t97.5 39q63 0 95 -39t32 -94q0 -53 -32 -92t-95 -39q-66 0 -99 39q-31 39 -30 92zM612 1370q0 55 32 94t97 39q63 0 95 -39t32 -94q0 -53 -31.5 -92t-95.5 -39q-65 0 -98 39q-31 39 -31 92z" />
<glyph unicode="&#xa9;" horiz-adv-x="1767" d="M143 737q0 154 53.5 288t150.5 233.5t234.5 158t305.5 58.5t305 -58.5t232.5 -158t147.5 -233.5t52 -288t-53 -288t-150.5 -233t-234.5 -157.5t-305 -58.5q-172 0 -309.5 58.5t-233.5 156.5q-94 100 -144.5 234.5t-50.5 287.5zM289 737q0 -125 41 -235.5t117.5 -192.5 t187.5 -131q113 -47 252 -47q141 0 251.5 48t187.5 130t117 192.5t40 235.5t-40 235.5t-117 192.5t-187.5 129t-251.5 47q-139 0 -251 -47t-188.5 -129t-117.5 -192.5t-41 -235.5zM477 739q0 92 27.5 172t81 138.5t133.5 91.5t182 33q96 0 165 -19.5t122 -42.5l-49 -129 q-68 25 -117 35t-117 10q-129 0 -190.5 -78t-61.5 -211q0 -137 57.5 -207.5t184.5 -70.5q63 0 125.5 11t128.5 40l43 -131q-59 -23 -133 -42.5t-164 -19.5q-115 0 -193.5 31t-129 86.5t-73 132t-22.5 170.5z" />
<glyph unicode="&#xaa;" horiz-adv-x="1038" d="M164 801q0 66 24.5 110.5t66.5 72.5t94 39t108 11h178v27q0 78 -32 109.5t-103 31.5q-57 0 -108.5 -10t-121.5 -33l-47 127q57 23 136 40t163 17q88 0 143.5 -21.5t86 -61t42 -95t11.5 -125.5v-292l69 -97l-120 -88l-68 80q-39 -23 -101.5 -49.5t-144.5 -26.5 q-55 0 -105 13.5t-88 41t-60.5 72.5t-22.5 107zM336 807q0 -55 38 -78.5t93 -23.5t95 17t75 40v145h-174q-55 0 -91 -23.5t-36 -76.5z" />
<glyph unicode="&#xab;" horiz-adv-x="1339" d="M139 561q0 70 47 121t119 102l283 201l92 -131l-272 -195q-47 -33 -63.5 -48t-16.5 -38q0 -29 19.5 -44t66.5 -50l274 -194l-94 -129l-307 204q-72 47 -110 89.5t-38 111.5zM641 561q0 70 47 121t119 102l283 201l92 -131l-272 -195q-47 -33 -63.5 -48t-16.5 -38 q0 -29 19.5 -44t66.5 -50l274 -194l-94 -129l-307 204q-72 47 -110 89.5t-38 111.5z" />
<glyph unicode="&#xac;" horiz-adv-x="1454" d="M250 614v164h952v-424h-170v260h-782z" />
<glyph unicode="&#xad;" horiz-adv-x="962" d="M162 553v182h641v-182h-641z" />
<glyph unicode="&#xae;" horiz-adv-x="1257" d="M115 969q0 104 35.5 197.5t102 163t162 110.5t214.5 41q123 0 219 -40t161.5 -108.5t99.5 -161t34 -196.5t-38 -196.5t-106.5 -160t-163 -107.5t-206.5 -40q-115 0 -209 39t-161.5 105.5t-106.5 156.5q-37 92 -37 197zM244 969q0 -78 25.5 -147.5t74.5 -122t121 -83.5 q72 -29 164 -28q98 0 170.5 30.5t121 84t72 124t23.5 148.5q0 80 -23.5 150.5t-72 124t-121 85t-170.5 31.5t-171 -33t-120 -87t-70.5 -125.5t-23.5 -151.5zM451 731v512h192q74 0 127 -32.5t53 -114.5q0 -53 -25.5 -89t-70.5 -59l152 -168l-88 -65l-150 172 q-16 20 -26.5 27.5t-26.5 7.5h-23v-191h-114zM565 1018h56q41 0 64.5 14.5t23.5 52.5q0 39 -23.5 51.5t-64.5 12.5h-56v-131z" />
<glyph unicode="&#xaf;" d="M190 1260v165h641v-165h-641z" />
<glyph unicode="&#xb0;" horiz-adv-x="733" d="M102 1214q0 55 19.5 103.5t54.5 84.5t83 56.5t108 20.5q57 0 106 -20.5t84 -56.5t54.5 -84t19.5 -104q0 -55 -19.5 -103t-54.5 -84t-84 -56.5t-106 -20.5q-61 0 -110.5 20.5t-84.5 55.5q-33 37 -51.5 85t-18.5 103zM238 1214q0 -55 36 -95t93 -40t93 40t36 95t-37 95.5 t-92 40.5t-92 -40t-37 -96z" />
<glyph unicode="&#xb1;" horiz-adv-x="1372" d="M188 0v164h994v-164h-994zM188 655v164h410v359h172v-359h412v-164h-412v-358h-172v358h-410z" />
<glyph unicode="&#xb2;" d="M178 700q0 29 17.5 60t50.5 59q66 57 140.5 110.5t139.5 108.5q59 49 98.5 94.5t39.5 98.5q0 59 -49.5 83.5t-108.5 24.5q-66 0 -116 -24.5t-107 -52.5l-66 112q53 33 130 67t173 34q141 0 222 -67t81 -171q0 -86 -43 -155.5t-125 -131.5l-288 -217q-8 -6 -9 -8 q0 -4 7 -4h477v-139h-537q-57 0 -92 31.5t-35 86.5z" />
<glyph unicode="&#xb3;" d="M182 623l41 137q72 -29 128.5 -43.5t127.5 -14.5q37 0 73 8.5t63.5 27t44 46t16.5 66.5q0 23 -7 47.5t-29 44t-58.5 31.5t-96.5 12h-94v98l238 224q4 4 4 8q0 6 -8 6h-389v137h444q70 0 98.5 -29.5t28.5 -74.5q0 -27 -19.5 -59.5t-44.5 -59.5l-145 -133q74 -8 120 -36 t73.5 -64.5t38 -77.5t10.5 -74q0 -61 -22.5 -113.5t-67.5 -90.5t-113 -60.5t-156 -22.5q-117 0 -186.5 20.5t-112.5 39.5z" />
<glyph unicode="&#xb4;" d="M328 1249l268 385l154 -108l-310 -359z" />
<glyph unicode="&#xb5;" horiz-adv-x="1202" d="M154 -446v1472h190v-655q0 -66 18.5 -113t52.5 -75.5t78 -42t97 -13.5q94 0 160.5 29.5t119.5 64.5v805h191v-829l90 -131l-135 -101l-103 107q-74 -47 -149.5 -78t-181.5 -31q-66 0 -131.5 19.5t-110.5 66.5v-495h-186z" />
<glyph unicode="&#xb6;" horiz-adv-x="1196" d="M92 1006q0 143 54.5 234t134 143.5t169 73t158.5 20.5h506v-162h-164v-1209q0 -238 -114.5 -362.5t-352.5 -124.5q-92 0 -160.5 14.5t-103.5 30.5l47 160q41 -12 104.5 -24.5t116.5 -12.5q131 0 197 71.5t66 256.5v1200h-152v-758q-246 0 -376 105.5t-130 343.5z" />
<glyph unicode="&#xb7;" horiz-adv-x="716" d="M221 759q0 61 32.5 101.5t104.5 40.5q70 0 102.5 -40t32.5 -102q0 -61 -32.5 -101t-102.5 -40q-71 0 -104 39q-33 41 -33 102z" />
<glyph unicode="&#xb8;" d="M258 -426l57 127q33 -16 78 -33.5t96 -17.5q45 0 69 19.5t24 51.5q0 29 -16.5 46.5t-44 26.5t-63.5 13.5t-75 4.5l53 208h164l-31 -122q37 -4 71 -16.5t60.5 -33t43 -52.5t16.5 -77q0 -92 -64.5 -151.5t-193.5 -59.5q-63 0 -133 18.5t-111 47.5z" />
<glyph unicode="&#xb9;" d="M195 1284l211 150q27 18 57.5 29.5t58.5 11.5q43 0 71 -26t28 -87v-641h204v-139h-573v139h215v571q0 8 -4 8t-12 -6l-166 -118z" />
<glyph unicode="&#xba;" horiz-adv-x="1054" d="M164 954q0 84 22.5 155t67.5 123t113.5 81.5t160.5 29.5t161 -28.5t114 -80.5t66.5 -123t21.5 -155t-20.5 -154.5t-63.5 -122.5t-112.5 -82t-168.5 -30q-98 0 -166.5 30t-111.5 81t-63.5 121.5t-20.5 154.5zM338 954q0 -121 47 -183t143 -62t143.5 62.5t47.5 182.5 q0 121 -47 183.5t-144 62.5q-96 0 -143 -62.5t-47 -183.5z" />
<glyph unicode="&#xbb;" horiz-adv-x="1339" d="M150 856l94 129l307 -205q72 -47 109.5 -89t37.5 -111q0 -70 -47 -121t-119 -103l-282 -200l-92 131l272 194q47 33 63.5 48.5t16.5 37.5q0 29 -19.5 44.5t-66.5 50.5zM652 856l94 129l307 -205q72 -47 109.5 -89t37.5 -111q0 -70 -47 -121t-119 -103l-282 -200l-92 131 l272 194q47 33 63.5 48.5t16.5 37.5q0 29 -19.5 44.5t-66.5 50.5z" />
<glyph unicode="&#xbc;" horiz-adv-x="2048" d="M97 1284l211 150q27 18 57.5 29.5t58.5 11.5q43 0 71 -26t28 -87v-641h204v-139h-573v139h215v571q0 8 -4 8t-12 -6l-166 -118zM523 0l901 1477h182l-899 -1477h-184zM1212 340q0 41 17.5 73.5t50.5 67.5l389 395h137v-530h144v-140h-144v-206h-153v206h-285 q-76 0 -116 37t-40 97zM1360 362q0 -16 22 -16h271v319l-281 -282q-12 -12 -12 -21z" />
<glyph unicode="&#xbd;" horiz-adv-x="2048" d="M91 1284l211 150q27 18 57.5 29.5t58.5 11.5q43 0 71 -26t28 -87v-641h204v-139h-573v139h215v571q0 8 -4 8t-12 -6l-166 -118zM510 0l901 1477h182l-899 -1477h-184zM1290 118q0 29 17.5 60t50.5 59q66 57 140.5 110.5t139.5 108.5q59 49 98.5 94.5t39.5 98.5 q0 59 -49.5 83.5t-108.5 24.5q-66 0 -116 -24.5t-107 -52.5l-66 112q53 33 130 67t173 34q141 0 222 -67t81 -171q0 -86 -43 -155.5t-125 -131.5l-288 -217q-8 -6 -9 -8q0 -4 7 -4h477v-139h-537q-57 0 -92 31.5t-35 86.5z" />
<glyph unicode="&#xbe;" horiz-adv-x="2048" d="M92 623l41 137q72 -29 128.5 -43.5t127.5 -14.5q37 0 73 8.5t63.5 27t44 46t16.5 66.5q0 23 -7 47.5t-29 44t-58.5 31.5t-96.5 12h-94v98l238 224q4 4 4 8q0 6 -8 6h-389v137h444q70 0 98.5 -29.5t28.5 -74.5q0 -27 -19.5 -59.5t-44.5 -59.5l-145 -133q74 -8 120 -36 t73.5 -64.5t38 -77.5t10.5 -74q0 -61 -22.5 -113.5t-67.5 -90.5t-113 -60.5t-156 -22.5q-117 0 -186.5 20.5t-112.5 39.5zM504 0l901 1477h182l-899 -1477h-184zM1218 340q0 41 17.5 73.5t50.5 67.5l389 395h137v-530h144v-140h-144v-206h-153v206h-285q-76 0 -116 37 t-40 97zM1366 362q0 -16 22 -16h271v319l-281 -282q-12 -12 -12 -21z" />
<glyph unicode="&#xbf;" horiz-adv-x="1202" d="M166 -104q0 119 57.5 200.5t149.5 149.5l112 82q39 29 66 50t43 42.5t23.5 45t7.5 58.5v84h188v-106q0 -49 -11 -85t-31.5 -64.5t-47.5 -53.5t-59 -49l-148 -115q-72 -55 -107.5 -108.5t-35.5 -112.5q0 -106 77.5 -162.5t235.5 -56.5q117 0 217.5 37t192.5 94l84 -143 q-41 -31 -99.5 -60t-126 -50.5t-140.5 -33.5t-142 -12q-131 0 -226.5 29.5t-158 80t-92 117t-29.5 142.5zM580 922q0 61 32.5 101t102.5 40q72 0 104.5 -40t32.5 -101t-33 -101.5t-104 -40.5q-70 0 -103 39q-33 41 -32 103z" />
<glyph unicode="&#xc0;" horiz-adv-x="1460" d="M25 25l385 1220q18 59 42.5 106.5t62.5 81t90 52t126 18.5t126 -18.5t90 -51t63.5 -80.5t44.5 -106l381 -1222l-193 -45l-158 495h-716l-156 -495zM420 643h614l-178 569q-23 72 -51.5 97.5t-75.5 25.5q-49 0 -77.5 -25.5t-51.5 -97.5zM471 1847l135 123l307 -319 l-102 -88z" />
<glyph unicode="&#xc1;" horiz-adv-x="1460" d="M25 25l385 1220q18 59 42.5 106.5t62.5 81t90 52t126 18.5t126 -18.5t90 -51t63.5 -80.5t44.5 -106l381 -1222l-193 -45l-158 495h-716l-156 -495zM420 643h614l-178 569q-23 72 -51.5 97.5t-75.5 25.5q-49 0 -77.5 -25.5t-51.5 -97.5zM557 1651l307 319l137 -123 l-340 -284z" />
<glyph unicode="&#xc2;" horiz-adv-x="1460" d="M25 25l385 1220q18 59 42.5 106.5t62.5 81t90 52t126 18.5t126 -18.5t90 -51t63.5 -80.5t44.5 -106l381 -1222l-193 -45l-158 495h-716l-156 -495zM420 643h614l-178 569q-23 72 -51.5 97.5t-75.5 25.5q-49 0 -77.5 -25.5t-51.5 -97.5zM428 1655l229 237h158l221 -235 l-106 -90l-197 170l-201 -170z" />
<glyph unicode="&#xc3;" horiz-adv-x="1460" d="M25 25l385 1220q18 59 42.5 106.5t62.5 81t90 52t126 18.5t126 -18.5t90 -51t63.5 -80.5t44.5 -106l381 -1222l-193 -45l-158 495h-716l-156 -495zM348 1602q0 121 42 194.5t142 75.5q53 0 106.5 -19.5t108.5 -42.5l53 -20q41 -16 70 -25.5t47 -9.5q35 0 48.5 24.5 t13.5 92.5h145q0 -123 -43 -196.5t-145 -73.5q-43 0 -100.5 20t-98.5 37l-70 24q-39 14 -67.5 24.5t-44.5 10.5q-35 0 -49.5 -24.5t-14.5 -91.5h-143zM420 643h614l-178 569q-23 72 -51.5 97.5t-75.5 25.5q-49 0 -77.5 -25.5t-51.5 -97.5z" />
<glyph unicode="&#xc4;" horiz-adv-x="1460" d="M25 25l385 1220q18 59 42.5 106.5t62.5 81t90 52t126 18.5t126 -18.5t90 -51t63.5 -80.5t44.5 -106l381 -1222l-193 -45l-158 495h-716l-156 -495zM371 1726q0 55 31.5 94.5t97.5 39.5q63 0 95 -39t32 -95q0 -53 -32 -93t-95 -40q-66 0 -99 39q-31 41 -30 94zM420 643 h614l-178 569q-23 72 -51.5 97.5t-75.5 25.5q-49 0 -77.5 -25.5t-51.5 -97.5zM833 1726q0 55 32 94.5t97 39.5q63 0 95 -39t32 -95q0 -53 -31.5 -93t-95.5 -40q-65 0 -98 39q-31 41 -31 94z" />
<glyph unicode="&#xc5;" horiz-adv-x="1460" d="M25 25l385 1220q18 59 42.5 106.5t62.5 81t90 52t126 18.5t126 -18.5t90 -51t63.5 -80.5t44.5 -106l381 -1222l-193 -45l-158 495h-716l-156 -495zM420 643h614l-178 569q-23 72 -51.5 97.5t-75.5 25.5q-49 0 -77.5 -25.5t-51.5 -97.5zM473 1821q0 55 20.5 103t56 84 t84 56.5t103.5 20.5t103.5 -20.5t84 -56.5t56 -84t20.5 -103t-20.5 -103.5t-56 -84.5t-84 -56.5t-103.5 -20.5t-103.5 20.5t-84.5 56.5t-56 83q-20 49 -20 105zM604 1821q0 -55 38 -95t95 -40t95 39.5t38 95.5q0 55 -39 94t-94 39t-94 -39t-39 -94z" />
<glyph unicode="&#xc6;" horiz-adv-x="2078" d="M37 45l559 1172q27 55 59.5 103t77.5 83t105.5 54.5t142.5 19.5h1006v-166h-818v-492h633v-166h-633v-487h834v-166h-1032v653h-430l-328 -673zM610 819h361v492q-76 -2 -115 -30t-70 -93z" />
<glyph unicode="&#xc7;" horiz-adv-x="1404" d="M98 735q0 166 47.5 306.5t140.5 244t232 160.5t324 57q160 0 275.5 -28.5t207.5 -65.5l-59 -156q-66 25 -120 41.5t-103.5 25.5t-96.5 13t-98 4q-262 0 -399.5 -157.5t-137.5 -444.5q0 -305 131 -456.5t389 -151.5q70 0 126.5 6t107.5 17.5t103.5 30t113.5 42.5l55 -149 q-111 -49 -223.5 -78t-247.5 -33l-14 -65q37 -4 70.5 -16.5t59.5 -33t42 -52.5t16 -77q0 -92 -63.5 -151.5t-194.5 -59.5q-63 0 -132.5 18.5t-110.5 47.5l59 127q31 -16 76 -33.5t96 -17.5q45 0 69.5 19.5t24.5 51.5q0 29 -16.5 46.5t-44 26.5t-64.5 13.5t-75 4.5l41 157 q-170 16 -286 81t-187.5 166t-102.5 233.5t-31 285.5z" />
<glyph unicode="&#xc8;" horiz-adv-x="1261" d="M154 0v1477h1015v-166h-817v-457h633v-166h-633v-522h834v-166h-1032zM393 1847l135 123l307 -319l-102 -88z" />
<glyph unicode="&#xc9;" horiz-adv-x="1261" d="M154 0v1477h1015v-166h-817v-457h633v-166h-633v-522h834v-166h-1032zM514 1651l307 319l137 -123l-340 -284z" />
<glyph unicode="&#xca;" horiz-adv-x="1261" d="M154 0v1477h1015v-166h-817v-457h633v-166h-633v-522h834v-166h-1032zM377 1655l229 237h158l221 -235l-106 -90l-197 170l-201 -170z" />
<glyph unicode="&#xcb;" horiz-adv-x="1261" d="M154 0v1477h1015v-166h-817v-457h633v-166h-633v-522h834v-166h-1032zM320 1726q0 55 31.5 94.5t97.5 39.5q63 0 95 -39t32 -95q0 -53 -32 -93t-95 -40q-66 0 -99 39q-31 41 -30 94zM782 1726q0 55 32 94.5t97 39.5q63 0 95 -39t32 -95q0 -53 -31.5 -93t-95.5 -40 q-65 0 -98 39q-31 41 -31 94z" />
<glyph unicode="&#xcc;" horiz-adv-x="516" d="M10 1847l135 123l307 -319l-102 -88zM158 0v1477h200v-1477h-200z" />
<glyph unicode="&#xcd;" horiz-adv-x="516" d="M88 1651l307 319l137 -123l-340 -284zM158 0v1477h200v-1477h-200z" />
<glyph unicode="&#xce;" horiz-adv-x="516" d="M-33 1655l229 237h158l221 -235l-106 -90l-197 170l-201 -170zM158 0v1477h200v-1477h-200z" />
<glyph unicode="&#xcf;" horiz-adv-x="516" d="M-92 1726q0 55 31.5 94.5t97.5 39.5q63 0 95 -39t32 -95q0 -53 -32 -93t-95 -40q-66 0 -99 39q-31 41 -30 94zM158 0v1477h200v-1477h-200zM370 1726q0 55 32 94.5t97 39.5q63 0 95 -39t32 -95q0 -53 -31.5 -93t-95.5 -40q-65 0 -98 39q-31 41 -31 94z" />
<glyph unicode="&#xd0;" horiz-adv-x="1587" d="M51 653v166h154v658h567q174 0 307 -53.5t224.5 -149.5t138.5 -231.5t47 -299.5q0 -162 -42 -298t-130 -235t-223.5 -154.5t-321.5 -55.5h-567v653h-154zM406 164h350q248 0 385 134t137 435t-137 440.5t-385 139.5h-350v-494h409v-166h-409v-489z" />
<glyph unicode="&#xd1;" horiz-adv-x="1521" d="M154 0v1477h221l739 -1250q10 -16 17.5 -27.5t19.5 -11.5q16 0 20.5 14.5t4.5 47.5v1227h192v-1225q0 -78 -16.5 -129t-44 -82t-63.5 -44t-73 -13q-47 0 -80.5 12t-60 36.5t-50.5 59.5t-50 78l-582 987v-1157h-194zM430 1602q0 121 42 194.5t142 75.5q53 0 106.5 -19.5 t108.5 -42.5l53 -20q41 -16 70 -25.5t47 -9.5q35 0 48.5 24.5t13.5 92.5h145q0 -123 -43 -196.5t-145 -73.5q-43 0 -100.5 20t-98.5 37l-70 24q-39 14 -67.5 24.5t-44.5 10.5q-35 0 -49.5 -24.5t-14.5 -91.5h-143z" />
<glyph unicode="&#xd2;" horiz-adv-x="1581" d="M98 733q0 152 41 291t125 245.5t215 170t312 63.5q184 0 316 -63.5t215 -170t122 -245.5t39 -291t-41 -291t-125 -245.5t-215 -170t-311 -63.5q-184 0 -316.5 64t-216.5 170q-82 106 -121 245.5t-39 290.5zM311 733q0 -127 30 -237.5t89.5 -191.5t149.5 -128t211 -47 t211 47t149 128t89 191.5t30 237.5t-30 237.5t-89 191.5t-149.5 128t-210.5 47q-121 0 -211.5 -47t-149.5 -128t-89 -191.5t-30 -237.5zM479 1847l135 123l307 -319l-102 -88z" />
<glyph unicode="&#xd3;" horiz-adv-x="1581" d="M98 733q0 152 41 291t125 245.5t215 170t312 63.5q184 0 316 -63.5t215 -170t122 -245.5t39 -291t-41 -291t-125 -245.5t-215 -170t-311 -63.5q-184 0 -316.5 64t-216.5 170q-82 106 -121 245.5t-39 290.5zM311 733q0 -127 30 -237.5t89.5 -191.5t149.5 -128t211 -47 t211 47t149 128t89 191.5t30 237.5t-30 237.5t-89 191.5t-149.5 128t-210.5 47q-121 0 -211.5 -47t-149.5 -128t-89 -191.5t-30 -237.5zM611 1651l307 319l137 -123l-340 -284z" />
<glyph unicode="&#xd4;" horiz-adv-x="1581" d="M98 733q0 152 41 291t125 245.5t215 170t312 63.5q184 0 316 -63.5t215 -170t122 -245.5t39 -291t-41 -291t-125 -245.5t-215 -170t-311 -63.5q-184 0 -316.5 64t-216.5 170q-82 106 -121 245.5t-39 290.5zM311 733q0 -127 30 -237.5t89.5 -191.5t149.5 -128t211 -47 t211 47t149 128t89 191.5t30 237.5t-30 237.5t-89 191.5t-149.5 128t-210.5 47q-121 0 -211.5 -47t-149.5 -128t-89 -191.5t-30 -237.5zM496 1655l229 237h158l221 -235l-106 -90l-197 170l-201 -170z" />
<glyph unicode="&#xd5;" horiz-adv-x="1581" d="M98 733q0 152 41 291t125 245.5t215 170t312 63.5q184 0 316 -63.5t215 -170t122 -245.5t39 -291t-41 -291t-125 -245.5t-215 -170t-311 -63.5q-184 0 -316.5 64t-216.5 170q-82 106 -121 245.5t-39 290.5zM311 733q0 -127 30 -237.5t89.5 -191.5t149.5 -128t211 -47 t211 47t149 128t89 191.5t30 237.5t-30 237.5t-89 191.5t-149.5 128t-210.5 47q-121 0 -211.5 -47t-149.5 -128t-89 -191.5t-30 -237.5zM391 1602q0 121 42 194.5t142 75.5q53 0 106.5 -19.5t108.5 -42.5l53 -20q41 -16 70 -25.5t47 -9.5q35 0 48.5 24.5t13.5 92.5h145 q0 -123 -43 -196.5t-145 -73.5q-43 0 -100.5 20t-98.5 37l-70 24q-39 14 -67.5 24.5t-44.5 10.5q-35 0 -49.5 -24.5t-14.5 -91.5h-143z" />
<glyph unicode="&#xd6;" horiz-adv-x="1581" d="M98 733q0 152 41 291t125 245.5t215 170t312 63.5q184 0 316 -63.5t215 -170t122 -245.5t39 -291t-41 -291t-125 -245.5t-215 -170t-311 -63.5q-184 0 -316.5 64t-216.5 170q-82 106 -121 245.5t-39 290.5zM311 733q0 -127 30 -237.5t89.5 -191.5t149.5 -128t211 -47 t211 47t149 128t89 191.5t30 237.5t-30 237.5t-89 191.5t-149.5 128t-210.5 47q-121 0 -211.5 -47t-149.5 -128t-89 -191.5t-30 -237.5zM435 1726q0 55 31.5 94.5t97.5 39.5q63 0 95 -39t32 -95q0 -53 -32 -93t-95 -40q-66 0 -99 39q-31 41 -30 94zM897 1726q0 55 32 94.5 t97 39.5q63 0 95 -39t32 -95q0 -53 -31.5 -93t-95.5 -40q-65 0 -98 39q-31 41 -31 94z" />
<glyph unicode="&#xd7;" horiz-adv-x="1372" d="M285 975l123 123l282 -283l277 277l114 -117l-276 -277l282 -282l-120 -121l-283 283l-276 -277l-115 117l274 274z" />
<glyph unicode="&#xd8;" horiz-adv-x="1583" d="M98 725q0 150 39 290t123 248.5t215 174t318 65.5q78 0 147.5 -13t128.5 -36l84 160h201l-131 -248q137 -111 199.5 -282t62.5 -359q0 -152 -39 -290t-122 -242.5t-215 -167t-316 -62.5q-84 0 -156 13.5t-133 35.5l-94 -180h-201l141 268q-133 104 -192.5 270.5 t-59.5 354.5zM311 729q0 -135 33 -251t102 -197l539 1017q-86 41 -192 41q-121 0 -212.5 -48t-150.5 -131t-89 -193.5t-30 -237.5zM588 170q86 -43 205 -43q121 0 211 46t149 128t89 191.5t30 236.5q0 139 -36 258t-108 203z" />
<glyph unicode="&#xd9;" horiz-adv-x="1486" d="M147 614v863h201v-815q0 -123 14.5 -221.5t57.5 -167t119.5 -106.5t201.5 -38t203 37t121 105.5t58.5 164.5t15.5 215v826h200v-834q0 -147 -24.5 -271t-91 -215t-183 -142.5t-299.5 -51.5q-184 0 -299.5 47t-181 132t-89.5 205t-24 267zM465 1847l135 123l307 -319 l-102 -88z" />
<glyph unicode="&#xda;" horiz-adv-x="1486" d="M147 614v863h201v-815q0 -123 14.5 -221.5t57.5 -167t119.5 -106.5t201.5 -38t203 37t121 105.5t58.5 164.5t15.5 215v826h200v-834q0 -147 -24.5 -271t-91 -215t-183 -142.5t-299.5 -51.5q-184 0 -299.5 47t-181 132t-89.5 205t-24 267zM629 1651l307 319l137 -123 l-340 -284z" />
<glyph unicode="&#xdb;" horiz-adv-x="1486" d="M147 614v863h201v-815q0 -123 14.5 -221.5t57.5 -167t119.5 -106.5t201.5 -38t203 37t121 105.5t58.5 164.5t15.5 215v826h200v-834q0 -147 -24.5 -271t-91 -215t-183 -142.5t-299.5 -51.5q-184 0 -299.5 47t-181 132t-89.5 205t-24 267zM455 1655l229 237h158l221 -235 l-106 -90l-197 170l-201 -170z" />
<glyph unicode="&#xdc;" horiz-adv-x="1486" d="M147 614v863h201v-815q0 -123 14.5 -221.5t57.5 -167t119.5 -106.5t201.5 -38t203 37t121 105.5t58.5 164.5t15.5 215v826h200v-834q0 -147 -24.5 -271t-91 -215t-183 -142.5t-299.5 -51.5q-184 0 -299.5 47t-181 132t-89.5 205t-24 267zM404 1726q0 55 31.5 94.5 t97.5 39.5q63 0 95 -39t32 -95q0 -53 -32 -93t-95 -40q-66 0 -99 39q-31 41 -30 94zM866 1726q0 55 32 94.5t97 39.5q63 0 95 -39t32 -95q0 -53 -31.5 -93t-95.5 -40q-65 0 -98 39q-31 41 -31 94z" />
<glyph unicode="&#xdd;" horiz-adv-x="1359" d="M25 1421l178 74l319 -676q23 -49 41.5 -77.5t36.5 -44t36.5 -20.5t41.5 -5q25 0 43 5t36.5 20.5t37 46t43.5 79.5l319 670l178 -72l-291 -594q-31 -61 -58.5 -113t-58 -92t-67.5 -67t-86 -39v-516h-203v514q-47 12 -80.5 34.5t-61.5 57.5t-52.5 82t-52.5 109zM537 1651 l307 319l137 -123l-340 -284z" />
<glyph unicode="&#xde;" horiz-adv-x="1282" d="M154 0v1477h200v-222h344q102 0 193.5 -25.5t160 -82.5t108.5 -146.5t40 -214.5q0 -102 -40 -186t-108.5 -144.5t-162.5 -94t-205 -33.5h-330v-328h-200zM354 487h303q61 0 122 14.5t107 49.5t75.5 92t29.5 143q0 100 -28.5 162t-74.5 95.5t-106.5 45t-126.5 11.5h-301 v-613z" />
<glyph unicode="&#xdf;" horiz-adv-x="1220" d="M145 0v1108q0 84 27 156.5t81 126t137 83t198 29.5q119 0 198.5 -28.5t127 -71.5t66.5 -94.5t19 -94.5q0 -78 -34.5 -135t-75.5 -103t-76 -88t-35 -87q0 -37 28 -66.5t70 -57.5t91 -59.5t91 -74.5t69.5 -102.5t27.5 -141.5q0 -68 -22.5 -129t-71.5 -107.5t-125 -73 t-182 -26.5q-104 0 -187.5 21.5t-124.5 42.5l43 155q41 -18 114 -39.5t173 -21.5q55 0 92 15.5t58.5 39t31 54t9.5 61.5q0 55 -28 95t-71 75t-91 66.5t-91 68.5t-70.5 83t-27.5 109q0 70 35.5 123.5t79.5 101.5t80 95t36 106q0 23 -11 47.5t-38 44t-71 33t-107 13.5 q-139 0 -195.5 -77t-56.5 -208v-1067h-191z" />
<glyph unicode="&#xe0;" horiz-adv-x="1114" d="M78 285q0 90 34.5 153.5t91 104.5t129.5 59.5t148 18.5h291v49q0 133 -52 185t-175 52q-84 0 -157 -12t-165 -45l-49 141q72 27 167 49.5t224 22.5q127 0 206 -31t122 -86t58.5 -133t15.5 -174v-440l86 -129l-131 -105l-99 109q-31 -18 -68.5 -38t-83.5 -36t-99.5 -26.5 t-112.5 -10.5q-78 0 -146.5 18.5t-121 57.5t-83 99.5t-30.5 146.5zM276 293q0 -49 18.5 -83t48.5 -54.5t70 -28.5t83 -8q92 0 158.5 31.5t121.5 68.5v250h-284q-90 0 -153 -43t-63 -133zM276 1526l158 108l268 -385l-116 -82z" />
<glyph unicode="&#xe1;" horiz-adv-x="1114" d="M78 285q0 90 34.5 153.5t91 104.5t129.5 59.5t148 18.5h291v49q0 133 -52 185t-175 52q-84 0 -157 -12t-165 -45l-49 141q72 27 167 49.5t224 22.5q127 0 206 -31t122 -86t58.5 -133t15.5 -174v-440l86 -129l-131 -105l-99 109q-31 -18 -68.5 -38t-83.5 -36t-99.5 -26.5 t-112.5 -10.5q-78 0 -146.5 18.5t-121 57.5t-83 99.5t-30.5 146.5zM276 293q0 -49 18.5 -83t48.5 -54.5t70 -28.5t83 -8q92 0 158.5 31.5t121.5 68.5v250h-284q-90 0 -153 -43t-63 -133zM404 1249l268 385l154 -108l-310 -359z" />
<glyph unicode="&#xe2;" horiz-adv-x="1114" d="M78 285q0 90 34.5 153.5t91 104.5t129.5 59.5t148 18.5h291v49q0 133 -52 185t-175 52q-84 0 -157 -12t-165 -45l-49 141q72 27 167 49.5t224 22.5q127 0 206 -31t122 -86t58.5 -133t15.5 -174v-440l86 -129l-131 -105l-99 109q-31 -18 -68.5 -38t-83.5 -36t-99.5 -26.5 t-112.5 -10.5q-78 0 -146.5 18.5t-121 57.5t-83 99.5t-30.5 146.5zM234 1257l241 328h158l231 -328l-114 -79l-199 243l-201 -241zM276 293q0 -49 18.5 -83t48.5 -54.5t70 -28.5t83 -8q92 0 158.5 31.5t121.5 68.5v250h-284q-90 0 -153 -43t-63 -133z" />
<glyph unicode="&#xe3;" horiz-adv-x="1114" d="M78 285q0 90 34.5 153.5t91 104.5t129.5 59.5t148 18.5h291v49q0 133 -52 185t-175 52q-84 0 -157 -12t-165 -45l-49 141q72 27 167 49.5t224 22.5q127 0 206 -31t122 -86t58.5 -133t15.5 -174v-440l86 -129l-131 -105l-99 109q-31 -18 -68.5 -38t-83.5 -36t-99.5 -26.5 t-112.5 -10.5q-78 0 -146.5 18.5t-121 57.5t-83 99.5t-30.5 146.5zM152 1233q0 121 42 194.5t142 75.5q53 0 106.5 -19.5t108.5 -41.5l53 -21q41 -16 70 -25.5t47 -9.5q35 0 48.5 25t13.5 92h145q0 -123 -43 -196.5t-145 -73.5q-43 0 -100.5 20.5t-98.5 36.5l-61 23 q-41 16 -73 26.5t-48 10.5q-35 0 -49.5 -25t-14.5 -92h-143zM276 293q0 -49 18.5 -83t48.5 -54.5t70 -28.5t83 -8q92 0 158.5 31.5t121.5 68.5v250h-284q-90 0 -153 -43t-63 -133z" />
<glyph unicode="&#xe4;" horiz-adv-x="1114" d="M78 285q0 90 34.5 153.5t91 104.5t129.5 59.5t148 18.5h291v49q0 133 -52 185t-175 52q-84 0 -157 -12t-165 -45l-49 141q72 27 167 49.5t224 22.5q127 0 206 -31t122 -86t58.5 -133t15.5 -174v-440l86 -129l-131 -105l-99 109q-31 -18 -68.5 -38t-83.5 -36t-99.5 -26.5 t-112.5 -10.5q-78 0 -146.5 18.5t-121 57.5t-83 99.5t-30.5 146.5zM189 1370q0 55 31.5 94t97.5 39q63 0 95 -39t32 -94q0 -53 -32 -92t-95 -39q-66 0 -99 39q-31 39 -30 92zM276 293q0 -49 18.5 -83t48.5 -54.5t70 -28.5t83 -8q92 0 158.5 31.5t121.5 68.5v250h-284 q-90 0 -153 -43t-63 -133zM651 1370q0 55 32 94t97 39q63 0 95 -39t32 -94q0 -53 -31.5 -92t-95.5 -39q-65 0 -98 39q-31 39 -31 92z" />
<glyph unicode="&#xe5;" horiz-adv-x="1114" d="M78 285q0 90 34.5 153.5t91 104.5t129.5 59.5t148 18.5h291v49q0 133 -52 185t-175 52q-84 0 -157 -12t-165 -45l-49 141q72 27 167 49.5t224 22.5q127 0 206 -31t122 -86t58.5 -133t15.5 -174v-440l86 -129l-131 -105l-99 109q-31 -18 -68.5 -38t-83.5 -36t-99.5 -26.5 t-112.5 -10.5q-78 0 -146.5 18.5t-121 57.5t-83 99.5t-30.5 146.5zM276 293q0 -49 18.5 -83t48.5 -54.5t70 -28.5t83 -8q92 0 158.5 31.5t121.5 68.5v250h-284q-90 0 -153 -43t-63 -133zM285 1454q0 55 20.5 103.5t56 84t84 56t103.5 20.5t103.5 -20.5t84 -56t56 -84 t20.5 -103.5t-20.5 -103t-56 -84t-84 -56.5t-103.5 -20.5t-103.5 20.5t-84.5 56.5t-56 83q-20 49 -20 104zM416 1454q0 -55 38 -95t95 -40t95 40t38 95t-39 95t-94 40t-94 -40t-39 -95z" />
<glyph unicode="&#xe6;" horiz-adv-x="1804" d="M51 285q0 90 35 151.5t92.5 100t130 55t148.5 16.5h291v62q0 133 -51.5 186t-174.5 53q-84 0 -156.5 -13t-164.5 -46l-54 141q72 27 169.5 49.5t226.5 22.5q152 0 228.5 -42t109.5 -120q59 74 149 118t217 44q240 0 349.5 -136t109.5 -382l-92 -90h-676q4 -154 91 -242 t247 -88q51 0 92 3t81 11t83 20.5t98 28.5l53 -147q-74 -27 -174 -52.5t-241 -25.5t-238.5 37t-163.5 104q-102 -72 -209.5 -106.5t-222.5 -34.5q-78 0 -147.5 18.5t-121.5 57.5t-83 99.5t-31 146.5zM250 293q0 -49 17.5 -83t48 -53.5t69.5 -27.5t82 -8q106 0 185 37t134 78 q-41 100 -47 221h-272q-90 0 -153.5 -37t-63.5 -127zM938 608h565q0 86 -20.5 144.5t-55 94.5t-83 51t-105.5 15q-66 0 -119 -23.5t-92 -64.5t-62.5 -97t-27.5 -120z" />
<glyph unicode="&#xe7;" horiz-adv-x="1083" d="M90 504q0 119 35 221t103.5 177t170 117t234.5 42q125 0 215 -22.5t156 -49.5l-60 -145q-45 16 -82 27.5t-72.5 17.5t-71.5 8t-79 2q-86 0 -151.5 -29.5t-109.5 -82t-66.5 -125t-22.5 -158.5q0 -188 86 -284.5t252 -96.5q80 0 160.5 13.5t168.5 49.5l56 -147 q-68 -29 -152 -49.5t-182 -24.5l-16 -67q37 -4 70.5 -16.5t60 -33t43 -52.5t16.5 -77q0 -92 -64.5 -151.5t-193.5 -59.5q-63 0 -133 18.5t-111 47.5l58 127q33 -16 76.5 -33.5t97.5 -17.5q45 0 68.5 19.5t23.5 51.5q0 29 -16.5 46.5t-44 26.5t-63.5 13.5t-75 4.5l39 157 q-117 14 -196.5 58.5t-131 114t-74 161.5t-22.5 201z" />
<glyph unicode="&#xe8;" horiz-adv-x="1153" d="M90 508q0 113 31 213t93 176t157.5 121t224.5 45q231 0 345 -135t114 -383l-92 -90h-672q4 -154 91 -243t247 -89q51 0 92 4t81 12t83 20.5t98 28.5l53 -147q-74 -27 -172 -52.5t-239 -25.5q-147 0 -249 39t-165.5 110.5t-92 172t-28.5 223.5zM293 608h565 q0 84 -20.5 141.5t-56.5 92.5t-84 49t-103 14q-139 0 -215 -81t-86 -216zM325 1526l158 108l268 -385l-116 -82z" />
<glyph unicode="&#xe9;" horiz-adv-x="1153" d="M90 508q0 113 31 213t93 176t157.5 121t224.5 45q231 0 345 -135t114 -383l-92 -90h-672q4 -154 91 -243t247 -89q51 0 92 4t81 12t83 20.5t98 28.5l53 -147q-74 -27 -172 -52.5t-239 -25.5q-147 0 -249 39t-165.5 110.5t-92 172t-28.5 223.5zM293 608h565 q0 84 -20.5 141.5t-56.5 92.5t-84 49t-103 14q-139 0 -215 -81t-86 -216zM447 1249l268 385l154 -108l-310 -359z" />
<glyph unicode="&#xea;" horiz-adv-x="1153" d="M90 508q0 113 31 213t93 176t157.5 121t224.5 45q231 0 345 -135t114 -383l-92 -90h-672q4 -154 91 -243t247 -89q51 0 92 4t81 12t83 20.5t98 28.5l53 -147q-74 -27 -172 -52.5t-239 -25.5q-147 0 -249 39t-165.5 110.5t-92 172t-28.5 223.5zM271 1257l241 328h158 l231 -328l-114 -79l-199 243l-201 -241zM293 608h565q0 84 -20.5 141.5t-56.5 92.5t-84 49t-103 14q-139 0 -215 -81t-86 -216z" />
<glyph unicode="&#xeb;" horiz-adv-x="1153" d="M90 508q0 113 31 213t93 176t157.5 121t224.5 45q231 0 345 -135t114 -383l-92 -90h-672q4 -154 91 -243t247 -89q51 0 92 4t81 12t83 20.5t98 28.5l53 -147q-74 -27 -172 -52.5t-239 -25.5q-147 0 -249 39t-165.5 110.5t-92 172t-28.5 223.5zM220 1370q0 55 31.5 94 t97.5 39q63 0 95 -39t32 -94q0 -53 -32 -92t-95 -39q-66 0 -99 39q-31 39 -30 92zM293 608h565q0 84 -20.5 141.5t-56.5 92.5t-84 49t-103 14q-139 0 -215 -81t-86 -216zM682 1370q0 55 32 94t97 39q63 0 95 -39t32 -94q0 -53 -31.5 -92t-95.5 -39q-65 0 -98 39 q-31 39 -31 92z" />
<glyph unicode="&#xec;" horiz-adv-x="526" d="M-13 1526l158 108l268 -385l-116 -82zM57 874v152h326v-1026h-190v874h-136z" />
<glyph unicode="&#xed;" horiz-adv-x="526" d="M57 874v152h326v-1026h-190v874h-136zM88 1249l268 385l154 -108l-310 -359z" />
<glyph unicode="&#xee;" horiz-adv-x="528" d="M-61 1257l241 328h158l231 -328l-114 -79l-199 243l-201 -241zM57 874v152h326v-1026h-190v874h-136z" />
<glyph unicode="&#xef;" horiz-adv-x="526" d="M-114 1370q0 55 31.5 94t97.5 39q63 0 95 -39t32 -94q0 -53 -32 -92t-95 -39q-66 0 -99 39q-31 39 -30 92zM57 874v152h326v-1026h-190v874h-136zM348 1370q0 55 32 94t97 39q63 0 95 -39t32 -94q0 -53 -31.5 -92t-95.5 -39q-65 0 -98 39q-31 39 -31 92z" />
<glyph unicode="&#xf0;" horiz-adv-x="1200" d="M90 475q0 123 35 220.5t98.5 164t148.5 102t187 35.5q98 0 182 -33.5t131 -72.5q-18 86 -71 162.5t-131 140.5l-201 -135l-86 115l158 106q-109 59 -230 86l66 145q72 -14 154.5 -44.5t164.5 -82.5l213 142l86 -113l-178 -119q61 -53 114.5 -121.5t93.5 -153.5 t62.5 -187.5t22.5 -221.5q0 -139 -28.5 -258t-91 -205t-161 -135t-235.5 -49q-125 0 -219 37t-157.5 103.5t-95.5 160.5t-32 211zM295 475q0 -174 79 -264t232 -90q92 0 151.5 41t94.5 104.5t48 141t13 153.5q0 39 -3 74.5t-7 66.5q-18 18 -50 43t-74 46.5t-92 37t-107 15.5 q-61 0 -112.5 -20.5t-90.5 -64.5t-60.5 -114t-21.5 -170z" />
<glyph unicode="&#xf1;" horiz-adv-x="1200" d="M86 999l164 76l63 -108q86 41 175.5 68.5t197.5 27.5q109 0 181.5 -32t115.5 -86t61.5 -127t18.5 -152v-666h-191v655q0 129 -61 186.5t-166 57.5q-94 0 -170 -26.5t-135 -55.5v-817h-190v827zM180 1233q0 121 42 194.5t142 75.5q53 0 106.5 -19.5t108.5 -41.5l53 -21 q41 -16 70 -25.5t47 -9.5q35 0 48.5 25t13.5 92h145q0 -123 -43 -196.5t-145 -73.5q-43 0 -100.5 20.5t-98.5 36.5l-61 23q-41 16 -73 26.5t-48 10.5q-35 0 -49.5 -25t-14.5 -92h-143z" />
<glyph unicode="&#xf2;" horiz-adv-x="1210" d="M90 512q0 117 32 218t96.5 175t161.5 116t226 42q133 0 230.5 -42t160 -116t93 -174t30.5 -217t-28.5 -218t-91 -175t-161 -116t-235.5 -42q-141 0 -239.5 42t-159.5 116q-59 74 -87 174t-28 217zM285 512q0 -193 83.5 -292t237.5 -99t236 99t82 292q0 195 -83 294 t-235 99q-156 0 -238.5 -99t-82.5 -294zM370 1526l158 108l268 -385l-116 -82z" />
<glyph unicode="&#xf3;" horiz-adv-x="1210" d="M90 512q0 117 32 218t96.5 175t161.5 116t226 42q133 0 230.5 -42t160 -116t93 -174t30.5 -217t-28.5 -218t-91 -175t-161 -116t-235.5 -42q-141 0 -239.5 42t-159.5 116q-59 74 -87 174t-28 217zM285 512q0 -193 83.5 -292t237.5 -99t236 99t82 292q0 195 -83 294 t-235 99q-156 0 -238.5 -99t-82.5 -294zM430 1249l268 385l154 -108l-310 -359z" />
<glyph unicode="&#xf4;" horiz-adv-x="1210" d="M90 512q0 117 32 218t96.5 175t161.5 116t226 42q133 0 230.5 -42t160 -116t93 -174t30.5 -217t-28.5 -218t-91 -175t-161 -116t-235.5 -42q-141 0 -239.5 42t-159.5 116q-59 74 -87 174t-28 217zM285 512q0 -193 83.5 -292t237.5 -99t236 99t82 292q0 195 -83 294 t-235 99q-156 0 -238.5 -99t-82.5 -294zM289 1257l241 328h158l231 -328l-114 -79l-199 243l-201 -241z" />
<glyph unicode="&#xf5;" horiz-adv-x="1210" d="M90 512q0 117 32 218t96.5 175t161.5 116t226 42q133 0 230.5 -42t160 -116t93 -174t30.5 -217t-28.5 -218t-91 -175t-161 -116t-235.5 -42q-141 0 -239.5 42t-159.5 116q-59 74 -87 174t-28 217zM217 1233q0 121 42 194.5t142 75.5q53 0 106.5 -19.5t108.5 -41.5l53 -21 q41 -16 70 -25.5t47 -9.5q35 0 48.5 25t13.5 92h145q0 -123 -43 -196.5t-145 -73.5q-43 0 -100.5 20.5t-98.5 36.5l-61 23q-41 16 -73 26.5t-48 10.5q-35 0 -49.5 -25t-14.5 -92h-143zM285 512q0 -193 83.5 -292t237.5 -99t236 99t82 292q0 195 -83 294t-235 99 q-156 0 -238.5 -99t-82.5 -294z" />
<glyph unicode="&#xf6;" horiz-adv-x="1210" d="M90 512q0 117 32 218t96.5 175t161.5 116t226 42q133 0 230.5 -42t160 -116t93 -174t30.5 -217t-28.5 -218t-91 -175t-161 -116t-235.5 -42q-141 0 -239.5 42t-159.5 116q-59 74 -87 174t-28 217zM244 1370q0 55 31.5 94t97.5 39q63 0 95 -39t32 -94q0 -53 -32 -92 t-95 -39q-66 0 -99 39q-31 39 -30 92zM285 512q0 -193 83.5 -292t237.5 -99t236 99t82 292q0 195 -83 294t-235 99q-156 0 -238.5 -99t-82.5 -294zM706 1370q0 55 32 94t97 39q63 0 95 -39t32 -94q0 -53 -31.5 -92t-95.5 -39q-65 0 -98 39q-31 39 -31 92z" />
<glyph unicode="&#xf7;" horiz-adv-x="1372" d="M188 614v164h994v-164h-994zM547 338q0 61 32.5 101t104.5 40q70 0 102.5 -40t32.5 -101t-32.5 -101t-102.5 -40q-71 0 -104 39q-33 41 -33 102zM547 1063q0 61 32.5 101t104.5 40q70 0 102.5 -40t32.5 -101q0 -59 -32.5 -100t-102.5 -41q-71 0 -104 41t-33 100z" />
<glyph unicode="&#xf8;" horiz-adv-x="1193" d="M86 512q0 117 32 218t95 175t159.5 116t225.5 42q102 0 193 -29l98 178h194l-145 -264q86 -74 128 -186.5t42 -247.5q0 -117 -28.5 -218t-90 -175t-159 -116t-234.5 -42q-104 0 -184 25l-111 -201h-195l152 279q-92 74 -132 189.5t-40 256.5zM285 512q0 -176 65 -279 l361 656q-49 18 -113 18q-158 0 -235.5 -100t-77.5 -295zM489 131q45 -14 109 -14q156 0 233.5 101t77.5 294q0 172 -61 270z" />
<glyph unicode="&#xf9;" horiz-adv-x="1196" d="M133 360v666h191v-655q0 -133 61 -188.5t166 -55.5q94 0 170 29.5t129 64.5v805h190v-829l88 -127l-133 -105l-102 107q-74 -47 -170 -78t-199 -31q-113 0 -188.5 32t-120.5 86t-63.5 127t-18.5 152zM329 1526l158 108l268 -385l-116 -82z" />
<glyph unicode="&#xfa;" horiz-adv-x="1196" d="M133 360v666h191v-655q0 -133 61 -188.5t166 -55.5q94 0 170 29.5t129 64.5v805h190v-829l88 -127l-133 -105l-102 107q-74 -47 -170 -78t-199 -31q-113 0 -188.5 32t-120.5 86t-63.5 127t-18.5 152zM420 1249l268 385l154 -108l-310 -359z" />
<glyph unicode="&#xfb;" horiz-adv-x="1196" d="M133 360v666h191v-655q0 -133 61 -188.5t166 -55.5q94 0 170 29.5t129 64.5v805h190v-829l88 -127l-133 -105l-102 107q-74 -47 -170 -78t-199 -31q-113 0 -188.5 32t-120.5 86t-63.5 127t-18.5 152zM293 1257l241 328h158l231 -328l-114 -79l-199 243l-201 -241z" />
<glyph unicode="&#xfc;" horiz-adv-x="1196" d="M133 360v666h191v-655q0 -133 61 -188.5t166 -55.5q94 0 170 29.5t129 64.5v805h190v-829l88 -127l-133 -105l-102 107q-74 -47 -170 -78t-199 -31q-113 0 -188.5 32t-120.5 86t-63.5 127t-18.5 152zM242 1370q0 55 31.5 94t97.5 39q63 0 95 -39t32 -94q0 -53 -32 -92 t-95 -39q-66 0 -99 39q-31 39 -30 92zM704 1370q0 55 32 94t97 39q63 0 95 -39t32 -94q0 -53 -31.5 -92t-95.5 -39q-65 0 -98 39q-31 39 -31 92z" />
<glyph unicode="&#xfd;" horiz-adv-x="1130" d="M35 1006l184 45l193 -746q12 -45 25.5 -78.5t35 -56.5t53 -34t78.5 -11q33 0 80 6l242 920l174 -45l-303 -1164q-23 -90 -63 -148.5t-92 -92t-115.5 -48t-137.5 -14.5q-59 0 -133 10.5t-131 28.5l31 152q66 -16 121 -25.5t116 -9.5q82 0 136.5 32.5t80.5 120.5l33 123 q-49 -6 -90 -6q-76 0 -129 18.5t-90 56.5t-62.5 94t-44.5 130zM418 1249l268 385l154 -108l-310 -359z" />
<glyph unicode="&#xfe;" horiz-adv-x="1189" d="M145 -446v1923h191v-498q53 29 134 56.5t175 27.5q100 0 184 -36t144.5 -104.5t93.5 -171t33 -235.5q0 -123 -30 -225.5t-93.5 -174t-159.5 -111.5t-229 -40q-53 0 -121 12.5t-131 28.5v-452h-191zM336 174q57 -23 114.5 -37t145.5 -14q63 0 117.5 20.5t95.5 67.5 t65.5 122t24.5 183q0 106 -21.5 179t-60.5 118t-93 63.5t-120 18.5q-74 0 -135 -22.5t-133 -61.5v-637z" />
<glyph unicode="&#xff;" horiz-adv-x="1130" d="M35 1006l184 45l193 -746q12 -45 25.5 -78.5t35 -56.5t53 -34t78.5 -11q33 0 80 6l242 920l174 -45l-303 -1164q-23 -90 -63 -148.5t-92 -92t-115.5 -48t-137.5 -14.5q-59 0 -133 10.5t-131 28.5l31 152q66 -16 121 -25.5t116 -9.5q82 0 136.5 32.5t80.5 120.5l33 123 q-49 -6 -90 -6q-76 0 -129 18.5t-90 56.5t-62.5 94t-44.5 130zM236 1370q0 55 31.5 94t97.5 39q63 0 95 -39t32 -94q0 -53 -32 -92t-95 -39q-66 0 -99 39q-31 39 -30 92zM698 1370q0 55 32 94t97 39q63 0 95 -39t32 -94q0 -53 -31.5 -92t-95.5 -39q-65 0 -98 39 q-31 39 -31 92z" />
<glyph unicode="&#x152;" horiz-adv-x="2287" d="M98 725q0 150 39 290t123 248.5t215 174t318 65.5q129 0 223 -29.5t164 -80.5v84h1015v-166h-817v-457h633v-164h-633v-524h834v-166h-1032v86q-74 -57 -173.5 -90t-230.5 -33q-180 0 -308 62.5t-210 167t-121 242.5t-39 290zM311 729q0 -127 30 -236.5t89 -190.5 t150.5 -127t212.5 -46q127 0 222 44t165 124v889q-70 72 -173.5 110.5t-213.5 38.5q-121 0 -212.5 -47t-150.5 -129t-89 -192.5t-30 -237.5z" />
<glyph unicode="&#x153;" horiz-adv-x="1959" d="M86 512q0 117 30.5 218t94 175t160 116t225.5 42q160 0 257 -63.5t148 -168.5q53 102 150.5 167t251.5 65q240 0 349.5 -136t109.5 -382l-95 -90h-675q4 -154 91 -242t247 -88q51 0 93 3t82 11t83 20.5t98 28.5l51 -147q-74 -27 -174 -52.5t-242 -25.5q-172 0 -273 56.5 t-155 154.5q-47 -98 -143 -154.5t-256 -56.5q-137 0 -233.5 42t-158 116t-89 174t-27.5 217zM285 512q0 -193 77.5 -294t235.5 -101q156 0 233.5 101t77.5 294q0 195 -77.5 295t-233.5 100q-158 0 -235.5 -100t-77.5 -295zM1092 608h565q0 86 -19.5 144.5t-55.5 94.5t-84 51 t-105 15q-66 0 -119 -23.5t-92 -64.5t-62.5 -97t-27.5 -120z" />
<glyph unicode="&#x178;" horiz-adv-x="1359" d="M25 1421l178 74l319 -676q23 -49 41.5 -77.5t36.5 -44t36.5 -20.5t41.5 -5q25 0 43 5t36.5 20.5t37 46t43.5 79.5l319 670l178 -72l-291 -594q-31 -61 -58.5 -113t-58 -92t-67.5 -67t-86 -39v-516h-203v514q-47 12 -80.5 34.5t-61.5 57.5t-52.5 82t-52.5 109zM328 1726 q0 55 31.5 94.5t97.5 39.5q63 0 95 -39t32 -95q0 -53 -32 -93t-95 -40q-66 0 -99 39q-31 41 -30 94zM790 1726q0 55 32 94.5t97 39.5q63 0 95 -39t32 -95q0 -53 -31.5 -93t-95.5 -40q-65 0 -98 39q-31 41 -31 94z" />
<glyph unicode="&#x2c6;" d="M197 1257l241 328h158l231 -328l-114 -79l-199 243l-201 -241z" />
<glyph unicode="&#x2dc;" d="M123 1233q0 121 42 194.5t142 75.5q53 0 106.5 -19.5t108.5 -41.5l53 -21q41 -16 70 -25.5t47 -9.5q35 0 48.5 25t13.5 92h145q0 -123 -43 -196.5t-145 -73.5q-43 0 -100.5 20.5t-98.5 36.5l-61 23q-41 16 -73 26.5t-48 10.5q-35 0 -49.5 -25t-14.5 -92h-143z" />
<glyph unicode="&#x2000;" horiz-adv-x="1042" />
<glyph unicode="&#x2001;" horiz-adv-x="2085" />
<glyph unicode="&#x2002;" horiz-adv-x="1042" />
<glyph unicode="&#x2003;" horiz-adv-x="2085" />
<glyph unicode="&#x2004;" horiz-adv-x="695" />
<glyph unicode="&#x2005;" horiz-adv-x="521" />
<glyph unicode="&#x2006;" horiz-adv-x="347" />
<glyph unicode="&#x2007;" horiz-adv-x="347" />
<glyph unicode="&#x2008;" horiz-adv-x="260" />
<glyph unicode="&#x2009;" horiz-adv-x="417" />
<glyph unicode="&#x200a;" horiz-adv-x="115" />
<glyph unicode="&#x2010;" horiz-adv-x="948" d="M154 553v182h641v-182h-641z" />
<glyph unicode="&#x2011;" horiz-adv-x="948" d="M154 553v182h641v-182h-641z" />
<glyph unicode="&#x2012;" horiz-adv-x="948" d="M154 553v182h641v-182h-641z" />
<glyph unicode="&#x2013;" d="M0 532v173h1024v-173h-1024z" />
<glyph unicode="&#x2014;" horiz-adv-x="2048" d="M0 532v173h2048v-173h-2048z" />
<glyph unicode="&#x2018;" horiz-adv-x="520" d="M117 1085q0 14 3 36t14 59t33.5 93t63.5 140l39 86l117 -35l-84 -250q41 -10 70.5 -41.5t29.5 -85.5q0 -63 -37.5 -101t-109.5 -38t-105.5 40t-33.5 97z" />
<glyph unicode="&#x2019;" horiz-adv-x="520" d="M117 1362q0 63 38 101t109 38q72 0 105.5 -40t33.5 -97q0 -14 -3 -35.5t-14 -58.5t-34.5 -93.5t-62.5 -140.5l-39 -86l-117 35l84 250q-41 10 -70.5 42t-29.5 85z" />
<glyph unicode="&#x201a;" horiz-adv-x="520" d="M117 106q0 63 38 101.5t109 38.5q72 0 105.5 -40t33.5 -97q0 -14 -3 -36t-14 -59t-34.5 -93t-62.5 -140l-39 -86l-117 35l84 250q-41 10 -70.5 41.5t-29.5 84.5z" />
<glyph unicode="&#x201c;" horiz-adv-x="923" d="M117 1085q0 14 3 36t14 59t33.5 93t63.5 140l39 86l117 -35l-84 -250q41 -10 70.5 -41.5t29.5 -85.5q0 -63 -37.5 -101t-109.5 -38t-105.5 40t-33.5 97zM520 1085q0 14 3 36t14 59t33.5 93t63.5 140l39 86l117 -35l-84 -250q41 -10 70.5 -41.5t29.5 -85.5 q0 -63 -37.5 -101t-109.5 -38t-105.5 40t-33.5 97z" />
<glyph unicode="&#x201d;" horiz-adv-x="923" d="M117 1362q0 63 38 101t109 38q72 0 105.5 -40t33.5 -97q0 -14 -3 -35.5t-14 -58.5t-34.5 -93.5t-62.5 -140.5l-39 -86l-117 35l84 250q-41 10 -70.5 42t-29.5 85zM520 1362q0 63 38 101t109 38q72 0 105.5 -40t33.5 -97q0 -14 -3 -35.5t-14 -58.5t-34.5 -93.5 t-62.5 -140.5l-39 -86l-117 35l84 250q-41 10 -70.5 42t-29.5 85z" />
<glyph unicode="&#x201e;" horiz-adv-x="923" d="M117 106q0 63 38 101.5t109 38.5q72 0 105.5 -40t33.5 -97q0 -14 -3 -36t-14 -59t-34.5 -93t-62.5 -140l-39 -86l-117 35l84 250q-41 10 -70.5 41.5t-29.5 84.5zM520 106q0 63 38 101.5t109 38.5q72 0 105.5 -40t33.5 -97q0 -14 -3 -36t-14 -59t-34.5 -93t-62.5 -140 l-39 -86l-117 35l84 250q-41 10 -70.5 41.5t-29.5 84.5z" />
<glyph unicode="&#x2022;" d="M299 678q0 98 51 159.5t164 61.5q109 0 160 -61.5t51 -159.5t-51 -159.5t-160 -61.5q-113 0 -164 61t-51 160z" />
<glyph unicode="&#x2026;" horiz-adv-x="1701" d="M123 106q0 61 32.5 101.5t104.5 40.5q70 0 102.5 -40t32.5 -102q0 -61 -32.5 -101t-102.5 -40q-71 0 -104 39q-33 41 -33 102zM715 106q0 61 32.5 101.5t104.5 40.5q70 0 102.5 -40t32.5 -102q0 -61 -32.5 -101t-102.5 -40q-71 0 -104 39q-33 41 -33 102zM1307 106 q0 61 32.5 101.5t104.5 40.5q70 0 102.5 -40t32.5 -102q0 -61 -32.5 -101t-102.5 -40q-71 0 -104 39q-33 41 -33 102z" />
<glyph unicode="&#x202f;" horiz-adv-x="417" />
<glyph unicode="&#x2039;" horiz-adv-x="837" d="M139 561q0 70 47 121t119 102l283 201l92 -131l-272 -195q-47 -33 -63.5 -48t-16.5 -38q0 -29 19.5 -44t66.5 -50l274 -194l-94 -129l-307 204q-72 47 -110 89.5t-38 111.5z" />
<glyph unicode="&#x203a;" horiz-adv-x="837" d="M150 856l94 129l307 -205q72 -47 109.5 -89t37.5 -111q0 -70 -47 -121t-119 -103l-282 -200l-92 131l272 194q47 33 63.5 48.5t16.5 37.5q0 29 -19.5 44.5t-66.5 50.5z" />
<glyph unicode="&#x205f;" horiz-adv-x="521" />
<glyph unicode="&#x20ac;" horiz-adv-x="1454" d="M133 477v150h911v-150h-532q35 -174 143.5 -262t282.5 -88q59 0 106.5 3t91.5 11.5t91 23.5t108 40l58 -150q-96 -47 -202 -69.5t-239 -22.5q-158 0 -272.5 39t-193 108.5t-125 164t-64.5 202.5h-164zM133 803v149h160q25 123 77 225.5t133 174t190.5 111.5t250.5 40 q72 0 131.5 -6t110.5 -17.5t97 -26.5t93 -34l-59 -151q-66 25 -115 39t-89 20t-76 8t-72 2q-205 0 -314.5 -99t-146.5 -286h540v-149h-911z" />
<glyph unicode="&#x2122;" horiz-adv-x="1882" d="M106 1333v144h656v-144h-248v-682h-162v682h-246zM883 651v826h149l217 -381q16 -29 33 -29q18 0 35 29l211 381h143v-826h-160v527l-94 -172q-37 -68 -66.5 -88.5t-70.5 -20.5t-68.5 19.5t-64.5 82.5l-105 179v-527h-159z" />
<glyph unicode="&#xe000;" horiz-adv-x="1054" d="M0 0v1055h1055v-1055h-1055z" />
</font>
</defs>
</svg>
